<svg width="36" height="39" viewBox="0 0 36 39" fill="none" xmlns="http://www.w3.org/2000/svg">
  <path
    d="M0 3.59576C0 1.60988 1.61177 0 3.6 0H32.4C34.3882 0 36 1.60987 36 3.59576V32.3618C36 34.3477 34.3882 35.9576 32.4 35.9576H3.6C1.61178 35.9576 0 34.3477 0 32.3618V3.59576Z"
    fill="#0E1013" />
  <path
    d="M14.3066 36.2767C13.7442 35.715 13.7442 34.8043 14.3066 34.2426L16.6114 31.9406C17.1737 31.3789 18.0855 31.3789 18.6478 31.9406L20.9526 34.2426C21.5149 34.8043 21.5149 35.715 20.9526 36.2767L18.6478 38.5787C18.0855 39.1404 17.1737 39.1404 16.6114 38.5787L14.3066 36.2767Z"
    fill="#0E1013" />
</svg>