<svg width="24" height="28" viewBox="0 0 24 28" fill="none" xmlns="http://www.w3.org/2000/svg">
<path d="M22.6902 23.716L20.7582 24.094L18.2782 17.257C18.1292 16.847 17.7392 16.573 17.3032 16.573H10.5472V11.524H13.9632C14.5362 11.524 15.0002 11.06 15.0002 10.487C15.0002 9.914 14.5362 9.45 13.9632 9.45H10.5472V7.532C12.1862 7.08 13.3992 5.606 13.3992 3.844C13.3992 1.725 11.6542 0 9.51022 0C7.36622 0 5.62122 1.725 5.62122 3.844C5.62122 5.606 6.83422 7.08 8.47322 7.532V17.61C8.47322 18.183 8.93722 18.647 9.51022 18.647H16.5762L19.1112 25.635C19.2632 26.051 19.6572 26.319 20.0852 26.319C20.1522 26.319 23.0882 25.752 23.0882 25.752C23.6502 25.643 24.0172 25.098 23.9072 24.536C23.7962 23.972 23.2502 23.604 22.6902 23.716ZM9.51022 2.074C10.5112 2.074 11.3252 2.868 11.3252 3.844C11.3252 4.82 10.5112 5.614 9.51022 5.614C8.50922 5.614 7.69522 4.82 7.69522 3.844C7.69522 2.868 8.50922 2.074 9.51022 2.074Z" fill="black"/>
<path d="M9.51522 25.85C5.50622 25.85 2.24722 22.647 2.24722 18.703C2.24722 15.919 3.87722 13.501 6.25622 12.34V9.997C2.64922 11.297 0.0742188 14.705 0.0742188 18.703C0.0742188 23.83 4.31122 28 9.51522 28C12.2752 28 14.7732 26.818 16.5012 24.937L15.6322 22.54C14.3502 24.528 12.0792 25.85 9.51522 25.85Z" fill="black"/>
</svg>
