<svg width="44" height="44" viewBox="0 0 44 44" fill="none" xmlns="http://www.w3.org/2000/svg">
<rect width="44" height="44" rx="22" fill="#3A6EA5"/>
<path d="M12 23.6897V28.7586C12 29.1583 12.32 29.4828 12.7143 29.4828C13.1086 29.4828 13.4286 29.1583 13.4286 28.7586V28.0345H30.5714V28.7586C30.5714 29.1583 30.8914 29.4828 31.2857 29.4828C31.68 29.4828 32 29.1583 32 28.7586V23.6897C32 22.4919 31.0386 21.5172 29.8571 21.5172H14.1429C12.9614 21.5172 12 22.4919 12 23.6897Z" fill="white"/>
<path d="M29.8571 20.069V15.7241C29.8571 15.3244 29.5371 15 29.1429 15H14.8571C14.4629 15 14.1429 15.3244 14.1429 15.7241V20.069H16.2857V19.3448C16.2857 18.5461 16.9264 17.8966 17.7143 17.8966H19.8571C20.645 17.8966 21.2857 18.5461 21.2857 19.3448V20.069H22.7143V19.3448C22.7143 18.5461 23.355 17.8966 24.1429 17.8966H26.2857C27.0736 17.8966 27.7143 18.5461 27.7143 19.3448V20.069H29.8571Z" fill="white"/>
</svg>
