<svg width="33" height="20" viewBox="0 0 33 20" fill="none" xmlns="http://www.w3.org/2000/svg">
<path d="M12.5926 19.9977C12.8175 19.9828 13.0201 19.8934 13.1812 19.7556C13.3422 19.8934 13.5448 19.9828 13.7697 19.9977C14.3355 20.0355 14.8241 19.5939 14.8607 19.0109L15.313 11.8243C15.412 11.9 15.5324 11.9486 15.6647 11.9575C15.6794 11.9585 15.6941 11.959 15.7086 11.959C16.0558 11.959 16.348 11.6812 16.371 11.3193C16.724 5.75479 15.5022 4.42762 15.2537 4.21809C15.1358 4.1187 14.9947 4.06871 14.8534 4.06431C14.831 4.06189 14.8084 4.06053 14.7854 4.06053H11.5768C11.5539 4.06053 11.5312 4.06189 11.5089 4.06431C11.3675 4.06871 11.2264 4.1187 11.1085 4.21809C10.86 4.42762 9.63823 5.75479 9.99129 11.3193C10.0142 11.6812 10.3064 11.959 10.6536 11.959C10.6682 11.959 10.6828 11.9585 10.6976 11.9575C10.8299 11.9486 10.9503 11.8999 11.0494 11.8242L11.5016 19.0109C11.5383 19.5939 12.0269 20.0355 12.5926 19.9977Z" fill="black"/>
<path d="M13.0174 3.84883C14.0494 3.84883 14.886 2.98724 14.886 1.92441C14.886 0.861589 14.0494 0 13.0174 0C11.9854 0 11.1488 0.861589 11.1488 1.92441C11.1488 2.98724 11.9854 3.84883 13.0174 3.84883Z" fill="black"/>
<path d="M29.4952 19.9984C29.6682 19.9879 29.8241 19.9254 29.948 19.8289C30.0719 19.9254 30.2277 19.9879 30.4007 19.9984C30.8359 20.0249 31.2117 19.7157 31.2399 19.3076L31.5878 14.277C31.664 14.33 31.7566 14.364 31.8583 14.3702C31.8697 14.3709 31.881 14.3713 31.8922 14.3713C32.1592 14.3713 32.384 14.1768 32.4016 13.9235C32.6732 10.0284 31.7334 9.09933 31.5422 8.95267C31.4515 8.88309 31.343 8.8481 31.2343 8.84502C31.2171 8.84332 31.1997 8.84237 31.182 8.84237H28.7139C28.6962 8.84237 28.6788 8.84332 28.6616 8.84502C28.5528 8.8481 28.4443 8.88309 28.3536 8.95267C28.1625 9.09933 27.2226 10.0284 27.4942 13.9235C27.5119 14.1768 27.7366 14.3713 28.0037 14.3713C28.0149 14.3713 28.0262 14.3709 28.0375 14.3702C28.1393 14.364 28.2319 14.33 28.3081 14.277L28.656 19.3077C28.6842 19.7157 29.06 20.0249 29.4952 19.9984Z" fill="black"/>
<path d="M29.822 8.69418C30.6158 8.69418 31.2594 8.09107 31.2594 7.34709C31.2594 6.60311 30.6158 6 29.822 6C29.0281 6 28.3846 6.60311 28.3846 7.34709C28.3846 8.09107 29.0281 8.69418 29.822 8.69418Z" fill="black"/>
<path d="M3.08281 19.9977C3.30774 19.9828 3.51033 19.8934 3.67141 19.7556C3.83248 19.8934 4.03507 19.9828 4.25997 19.9977C4.8257 20.0355 5.3143 19.5939 5.35096 19.0109L5.8032 11.8243C5.90228 11.9 6.02264 11.9486 6.15489 11.9575C6.16965 11.9585 6.18431 11.959 6.19887 11.959C6.54605 11.959 6.83824 11.6812 6.86119 11.3193C7.21425 5.75479 5.99247 4.42762 5.74394 4.21809C5.62607 4.1187 5.48496 4.06871 5.3436 4.06431C5.32126 4.06189 5.29861 4.06053 5.27565 4.06053H2.06707C2.0441 4.06053 2.02145 4.06189 1.99912 4.06431C1.85776 4.06871 1.71665 4.1187 1.59877 4.21809C1.35025 4.42762 0.128464 5.75479 0.481522 11.3193C0.504476 11.6812 0.796667 11.959 1.14384 11.959C1.1584 11.959 1.17306 11.9585 1.18782 11.9575C1.32011 11.9486 1.44049 11.8999 1.53959 11.8242L1.9918 19.0109C2.02851 19.5939 2.51711 20.0355 3.08281 19.9977Z" fill="black"/>
<path d="M3.50765 3.84883C4.53965 3.84883 5.37626 2.98724 5.37626 1.92441C5.37626 0.861589 4.53965 0 3.50765 0C2.47565 0 1.63905 0.861589 1.63905 1.92441C1.63905 2.98724 2.47565 3.84883 3.50765 3.84883Z" fill="black"/>
<path d="M21.4874 19.9984C21.6604 19.9879 21.8162 19.9254 21.9401 19.8289C22.064 19.9254 22.2199 19.9879 22.3929 19.9984C22.8281 20.0249 23.2039 19.7157 23.2321 19.3076L23.58 14.277C23.6562 14.33 23.7488 14.364 23.8505 14.3702C23.8619 14.3709 23.8731 14.3713 23.8843 14.3713C24.1514 14.3713 24.3762 14.1768 24.3938 13.9235C24.6654 10.0284 23.7256 9.09933 23.5344 8.95267C23.4437 8.88309 23.3352 8.8481 23.2264 8.84502C23.2093 8.84332 23.1918 8.84237 23.1742 8.84237H20.706C20.6884 8.84237 20.6709 8.84332 20.6538 8.84502C20.545 8.8481 20.4365 8.88309 20.3458 8.95267C20.1546 9.09933 19.2148 10.0284 19.4864 13.9235C19.504 14.1768 19.7288 14.3713 19.9959 14.3713C20.0071 14.3713 20.0183 14.3709 20.0297 14.3702C20.1315 14.364 20.2241 14.33 20.3003 14.277L20.6481 19.3077C20.6764 19.7157 21.0522 20.0249 21.4874 19.9984Z" fill="black"/>
<path d="M21.8142 8.69418C22.608 8.69418 23.2516 8.09107 23.2516 7.34709C23.2516 6.60311 22.608 6 21.8142 6C21.0203 6 20.3768 6.60311 20.3768 7.34709C20.3768 8.09107 21.0203 8.69418 21.8142 8.69418Z" fill="black"/>
</svg>
