<svg width="23" height="31" viewBox="0 0 23 31" fill="none" xmlns="http://www.w3.org/2000/svg">
<path d="M13.0477 5.66852C14.613 5.66852 15.882 4.39958 15.882 2.83426C15.882 1.26894 14.613 0 13.0477 0C11.4824 0 10.2134 1.26894 10.2134 2.83426C10.2134 4.39958 11.4824 5.66852 13.0477 5.66852Z" fill="#030104"/>
<path d="M9.12729 7.75356C9.23244 7.03424 9.79045 6.60169 10.1979 6.7152L13.1552 7.53967C13.5615 7.65558 13.7013 8.59953 13.5866 9.00938L11.1502 19.0129C11.0307 19.424 10.7858 19.6271 10.3783 19.51L8.38049 19.0774C6.77098 17.7523 6.78054 16.5993 7.11033 15.0077L9.12729 7.75356Z" fill="#030104"/>
<path d="M6.59057 19.2484L6.08393 22.7912C6.08393 22.7912 4.78032 25.8871 3.88416 27.7057C3.20666 29.0834 2.88763 30.0764 3.35363 30.3249C4.06817 30.7049 5.02886 29.8529 6.03495 28.284C7.72212 25.6529 8.5908 24.3374 8.9158 23.6981L9.42602 22.0276C9.42602 22.0276 6.92035 20.3703 6.59057 19.2484Z" fill="#030104"/>
<path d="M15.545 20.7144L11.5983 16.7952C10.9758 16.1679 10.0461 16.4631 9.41644 17.0868C8.78793 17.7057 7.55721 18.2912 8.17735 18.9221L13.197 23.1484L12.6414 28.5636C12.6008 29.8995 12.6797 30.6738 13.528 30.7622C14.3202 30.8446 14.6691 29.1969 14.7516 28.7799C14.7516 28.7799 15.766 23.5929 15.8891 22.8616C16.0122 22.1292 16.0863 21.2677 15.545 20.7144Z" fill="#030104"/>
<path d="M20.3174 9.09426L17.3421 10.4935L13.5938 7.75719C12.9987 7.32583 12.1635 7.45966 11.7309 8.0583C11.2996 8.65454 11.4334 9.48738 12.0321 9.92112L16.0743 12.8486C16.4543 13.1222 17.0386 13.2656 17.4664 13.0804C17.4664 13.0804 20.2421 11.3944 20.9865 10.9093C21.7668 10.3979 22.5829 9.72635 22.2817 9.16237C21.854 8.35224 21.0749 8.72863 20.3174 9.09426Z" fill="#030104"/>
<path d="M7.73405 7.63648C7.73405 7.63648 5.96085 13.1401 5.692 14.0148C5.42315 14.8894 4.48517 15.4964 3.16005 15.0925C1.83492 14.6875 0.459616 14.1319 0.674694 12.5833C0.910086 10.8961 2.50406 8.65571 3.88654 7.21468C5.26901 5.77485 8.42589 5.2742 7.73405 7.63648Z" fill="#030104"/>
</svg>
