<svg width="31" height="31" viewBox="0 0 31 31" fill="none" xmlns="http://www.w3.org/2000/svg">
<path d="M10.6165 5.50812L9.52476 6.10899C8.54267 6.65198 7.83697 7.58608 7.58279 8.67915L6.15808 14.6306M13.506 7.12074C13.7461 7.15836 13.9903 7.17781 14.242 7.17781H19.5339C20.5089 7.17781 21.2991 7.96801 21.2991 8.94295C21.2991 9.4301 21.1014 9.87142 20.7819 10.1909C20.4624 10.5104 20.0211 10.7081 19.5339 10.7081M19.5339 10.7081H13.1012L12.2186 14.2384M19.5339 10.7081L19.5339 23.064M19.5339 23.064H12.2184L9.82568 25.7117H1V29.242H29.2422V16.886H24.8294L19.5339 23.064ZM6.20174 13.9751L5.03438 13.642C3.8601 13.3069 3.18457 12.0783 3.53098 10.9072L4.31092 8.27063C4.64655 7.13591 5.82094 6.47122 6.96657 6.76735L8.33291 7.12067M17.7688 23.064H23.9467M13.6249 1.08337C15.2852 1.47541 16.3133 3.13915 15.9213 4.79944C15.5292 6.45973 13.8655 7.48785 12.2052 7.09581C10.5449 6.70377 9.51679 5.04002 9.90883 3.37973C10.3009 1.71945 11.9646 0.691329 13.6249 1.08337ZM6.15811 14.2384C6.15811 14.2384 4.47144 17.4941 5.76589 19.1807L3.18384 25.7117H7.3396L10.3944 17.9451H12.4733V23.064H16.0036V17.0036C16.0036 15.4764 14.7655 14.2383 13.2383 14.2383L6.15811 14.2384Z" stroke="black" stroke-width="1.6" stroke-miterlimit="10"/>
</svg>
