<svg width="75" height="75" viewBox="0 0 75 75" fill="none" xmlns="http://www.w3.org/2000/svg">
<rect width="75" height="75" rx="5" fill="black"/>
<path d="M49.9496 22H48.605C47.0687 22 45.7696 23.0358 45.3695 24.4458H43.6769C42.3283 24.4458 41.2311 25.5428 41.2311 26.8914C41.2311 28.2399 42.3283 29.3372 43.6769 29.3372H49.9496C51.8039 29.3372 53.3125 27.8286 53.3125 25.9743V25.3629C53.3125 23.5086 51.8039 22 49.9496 22Z" fill="white"/>
<path d="M29.1079 23.9537C28.771 22.8251 27.7237 22 26.4869 22H26.2698C25.0333 22 23.9859 22.8251 23.6491 23.9537C22.7043 24.2857 22.0248 25.1873 22.0248 26.2445V26.3333C22.0248 27.6719 23.1137 28.7607 24.4523 28.7607H28.3047C29.6432 28.7607 30.7321 27.6719 30.7321 26.3333V26.2445C30.7321 25.1876 30.0532 24.286 29.1079 23.9537Z" fill="white"/>
<path d="M47.3143 44.439L49.0014 42.5471L46.2851 35.5783L45.223 37.8173L43.5957 34.3867L42.2915 36.7628L44.4695 43.0801L47.3143 44.439Z" fill="white"/>
<path d="M34.4197 39.6945L37.8194 43.0147L40.8101 38.0934L38.4745 31.3191L37.3058 32.6554L34.229 26.4198L29.7173 35.4436L27.9604 34.9424L26.5158 39.7126L30.7517 42.3715L34.4197 39.6945Z" fill="white"/>
<path d="M53.3039 52V50.1658H51.9708L49.7489 44.4648L47.7665 46.6877L45.3085 45.5135L46.9125 50.1658H44.9724L41.587 40.3469L38.1887 45.939L34.2479 42.0906L30.8291 44.5859L25.9647 41.5323L23.35 50.1658H22V52H53.3039Z" fill="white"/>
</svg>
