<svg width="18" height="18" viewBox="0 0 18 18" fill="none" xmlns="http://www.w3.org/2000/svg">
<path d="M17.3706 13.6C16.8244 13.1419 13.6206 11.1131 13.0881 11.2063C12.8381 11.2506 12.6469 11.4637 12.135 12.0744C11.8983 12.3749 11.6383 12.6564 11.3575 12.9163C10.843 12.792 10.345 12.6074 9.87375 12.3663C8.0258 11.4666 6.53289 9.97322 5.63375 8.125C5.39265 7.65379 5.20804 7.15576 5.08375 6.64125C5.34358 6.36044 5.62507 6.10047 5.92563 5.86375C6.53563 5.35188 6.74938 5.16187 6.79375 4.91062C6.88688 4.37687 4.85625 1.17437 4.4 0.628125C4.20875 0.401875 4.035 0.25 3.8125 0.25C3.1675 0.25 0.25 3.8575 0.25 4.325C0.25 4.36313 0.3125 8.11875 5.05562 12.9444C9.88125 17.6875 13.6369 17.75 13.675 17.75C14.1425 17.75 17.75 14.8325 17.75 14.1875C17.75 13.965 17.5981 13.7913 17.3706 13.6Z" fill="black"/>
<path d="M13.375 8.375H14.625C14.6235 7.04937 14.0962 5.77847 13.1589 4.84111C12.2215 3.90375 10.9506 3.37649 9.625 3.375V4.625C10.6193 4.62599 11.5725 5.0214 12.2756 5.72445C12.9786 6.42749 13.374 7.38074 13.375 8.375Z" fill="black"/>
<path d="M16.5 8.375H17.75C17.7475 6.22088 16.8907 4.15569 15.3675 2.6325C13.8443 1.1093 11.7791 0.252481 9.625 0.25V1.5C11.4477 1.50215 13.1951 2.22717 14.484 3.51602C15.7728 4.80486 16.4979 6.5523 16.5 8.375Z" fill="black"/>
</svg>
