<svg width="50" height="50" viewBox="0 0 50 50" fill="none" xmlns="http://www.w3.org/2000/svg">
<rect width="50" height="50" rx="8" fill="black"/>
<path fill-rule="evenodd" clip-rule="evenodd" d="M17.6842 32.3891C17.6764 32.4945 17.7126 32.5985 17.7842 32.676C17.856 32.7534 17.957 32.7975 18.0626 32.7975H19.6638C19.7773 32.7975 19.8846 32.7468 19.9567 32.6592C20.0289 32.5715 20.058 32.4564 20.0362 32.345C19.6222 30.2329 18.4979 28.5546 16.6768 27.3024C16.5219 27.1963 16.3128 27.2189 16.1846 27.3558C16.0564 27.493 16.0477 27.7031 16.1639 27.8504C17.1472 29.0947 17.8285 30.5105 17.6842 32.3891ZM20.3972 30.0265C20.7034 30.6828 20.9302 31.3876 21.078 32.1409C21.1213 32.3614 21.1118 32.5859 21.0541 32.7975H21.5372C21.6429 32.7975 21.7439 32.7534 21.8154 32.676C21.8873 32.5985 21.9235 32.4945 21.9156 32.3891C21.7714 30.5105 22.4527 29.0947 23.436 27.8504C23.5522 27.7031 23.5435 27.493 23.4153 27.3558C23.2871 27.2189 23.0777 27.1963 22.9231 27.3024C21.828 28.0554 20.9857 28.9635 20.3972 30.0265ZM19.8024 28.9594C20.4388 27.9911 21.2773 27.1459 22.3218 26.4278C22.909 26.0238 23.7033 26.1101 24.1903 26.6303C24.6773 27.1508 24.7108 27.9492 24.269 28.5084C23.6042 29.3495 23.0913 30.28 22.9805 31.4342C23.6646 31.4805 24.367 31.505 25.0832 31.505C28.7067 31.505 31.982 30.8816 34.3307 29.897C36.0754 29.1655 37.3309 28.2092 37.9635 27.187C37.9638 27.1867 37.9638 27.1865 37.9641 27.1862C38.0128 27.1075 38.0599 27.0087 38.116 26.9028C38.1228 26.8897 38.1293 26.8767 38.1356 26.8636C38.435 26.2351 38.3909 25.4976 38.0196 24.9091C38.0196 24.9088 38.0193 24.9088 38.0193 24.9085C37.6475 24.3203 37.0004 23.9639 36.3046 23.9639H28.2758C27.9181 23.9639 27.5854 23.7802 27.3949 23.4777C27.2046 23.1748 27.1828 22.7953 27.3374 22.4727C27.3766 22.391 27.4153 22.3107 27.4531 22.2321C27.758 21.5967 27.718 20.8481 27.3464 20.247C26.9748 19.646 26.3223 19.276 25.6165 19.2649C25.4395 19.2622 25.2617 19.2605 25.0832 19.2605C20.7769 19.2605 16.9623 20.1455 14.5951 21.4679C12.6776 22.5389 11.666 23.9539 11.666 25.3827C11.666 27.0288 13.0592 28.6739 15.5952 29.7935C15.7871 29.8784 15.9938 29.9021 16.1908 29.8708C15.9646 29.3825 15.6671 28.9341 15.3309 28.5084C14.8891 27.9492 14.9226 27.1508 15.4096 26.6306C15.8966 26.1101 16.6906 26.0238 17.2781 26.4275C18.324 27.1467 19.1657 27.9906 19.8024 28.9594ZM26.9046 28.3513C26.9046 28.3513 27.4251 28.0788 27.9132 27.8232C28.2826 27.6299 28.7233 27.6299 29.0927 27.8232C29.2977 27.9304 29.5171 28.0453 29.7218 28.1526C30.4013 28.5081 31.2117 28.5081 31.8911 28.1526C32.3792 27.8972 32.8997 27.6247 32.8997 27.6247C33.1607 27.4881 33.2617 27.1655 33.1251 26.9044C32.9884 26.6437 32.6659 26.5427 32.4048 26.6793C32.4048 26.6793 31.8846 26.9518 31.3962 27.2071C31.0268 27.4004 30.5861 27.4004 30.2167 27.2071C30.0117 27.0999 29.7926 26.985 29.5876 26.8778C28.9081 26.5222 28.0977 26.5222 27.4183 26.8778C26.9302 27.1334 26.4097 27.4059 26.4097 27.4059C26.1489 27.5423 26.0479 27.8651 26.1843 28.1259C26.321 28.3869 26.6435 28.4877 26.9046 28.3513ZM17.7866 25.0523C17.7866 25.0523 18.3071 24.7798 18.7952 24.5244C19.1646 24.3309 19.6053 24.3309 19.9747 24.5244C20.1797 24.6317 20.3988 24.7463 20.6038 24.8535C21.2833 25.2093 22.0937 25.2093 22.7731 24.8535C23.2612 24.5982 23.7817 24.3257 23.7817 24.3257C24.0428 24.1891 24.1435 23.8665 24.0071 23.6054C23.8704 23.3446 23.5479 23.2436 23.2868 23.3803C23.2868 23.3803 22.7663 23.6528 22.2782 23.9081C21.9088 24.1017 21.4681 24.1017 21.0987 23.9081C20.8937 23.8009 20.6746 23.6863 20.4696 23.579C19.7901 23.2232 18.9797 23.2232 18.3003 23.579C17.8122 23.8343 17.2917 24.1068 17.2917 24.1068C17.0306 24.2435 16.9299 24.5661 17.0663 24.8269C17.203 25.0879 17.5255 25.1889 17.7866 25.0523ZM17.7866 22.8998C17.7866 22.8998 18.3071 22.6273 18.7952 22.372C19.1646 22.1784 19.6053 22.1784 19.9747 22.372C20.1797 22.4792 20.3988 22.5938 20.6038 22.7011C21.2833 23.0569 22.0937 23.0569 22.7731 22.7011C23.2612 22.4458 23.7817 22.1733 23.7817 22.1733C24.0428 22.0366 24.1435 21.714 24.0071 21.4532C23.8704 21.1922 23.5479 21.0912 23.2868 21.2278C23.2868 21.2278 22.7663 21.5003 22.2782 21.7557C21.9088 21.9492 21.4681 21.9492 21.0987 21.7557C20.8937 21.6484 20.6746 21.5338 20.4696 21.4266C19.7901 21.0708 18.9797 21.0708 18.3003 21.4266C17.8122 21.6819 17.2917 21.9544 17.2917 21.9544C17.0306 22.0911 16.9299 22.4136 17.0663 22.6744C17.203 22.9355 17.5255 23.0365 17.7866 22.8998ZM33.2043 22.562C33.3099 22.562 33.4109 22.5179 33.4825 22.4406C33.5544 22.363 33.5906 22.259 33.5827 22.1537C33.4387 20.2751 34.1198 18.859 35.103 17.6147C35.2193 17.4674 35.2106 17.2573 35.0823 17.1201C34.9539 16.9831 34.7448 16.9605 34.5902 17.0667C32.7693 18.3192 31.645 19.9971 31.2307 22.1096C31.2089 22.2209 31.2381 22.3361 31.3102 22.4237C31.3823 22.5114 31.4896 22.562 31.6031 22.562H33.2043ZM30.2129 22.562C30.1552 22.3505 30.1456 22.1259 30.1889 21.9054C30.3367 21.1522 30.5638 20.4474 30.8697 19.7911C30.2815 18.7281 29.439 17.8199 28.3438 17.0667C28.1892 16.9605 27.9799 16.9831 27.8516 17.1201C27.7234 17.2573 27.7147 17.4674 27.831 17.6147C28.8145 18.859 29.4956 20.2751 29.3516 22.1537C29.3437 22.259 29.3799 22.363 29.4518 22.4406C29.5233 22.5179 29.6243 22.562 29.73 22.562H30.2129Z" fill="white"/>
</svg>
