<svg width="30" height="30" viewBox="0 0 30 30" fill="none" xmlns="http://www.w3.org/2000/svg">
<path d="M5.25856 20.6618L6.4753 19.9484C7.0166 19.631 7.687 19.6346 8.22464 19.958L9.3631 20.6424C9.9131 20.9731 10.5315 21.1386 11.1504 21.1386C11.7563 21.1386 12.3626 20.9798 12.9048 20.6618L14.1216 19.9484C14.6629 19.631 15.3333 19.6346 15.8711 19.958L17.0094 20.6424C18.0984 21.297 19.4554 21.3043 20.5513 20.6618L21.768 19.9484C22.3093 19.631 22.9795 19.6346 23.5174 19.958L24.6556 20.6424C25.7446 21.297 27.1017 21.3043 28.1976 20.6618L29.4154 19.9477L28.5265 18.4314L27.3083 19.1455C26.768 19.4625 26.0985 19.4588 25.5615 19.1359L24.4231 18.4515C23.5039 17.8988 22.3931 17.807 21.4096 18.1785V4.72733C21.4096 3.0899 22.7417 1.75781 24.3791 1.75781H25.8694V0H24.3789C21.7724 0 19.6518 2.12059 19.6518 4.72733V6.16425H12.2793V4.72733C12.2793 3.0899 13.6114 1.75781 15.2488 1.75781H16.739V0H15.2488C12.6421 0 10.5215 2.12059 10.5215 4.72733V19.2599C10.435 19.2256 10.3503 19.1849 10.2688 19.1359L9.13055 18.4515C8.04108 17.7965 6.68289 17.7889 5.58632 18.4321L4.36935 19.1455C3.82896 19.4625 3.15948 19.4588 2.62253 19.1359L1.49162 18.4561L0.585938 19.9626L1.71684 20.6424C2.80563 21.297 4.16267 21.3043 5.25856 20.6618ZM17.9153 19.1359L16.7768 18.4515C15.6873 17.7965 14.3291 17.7889 13.2326 18.4321L12.2793 18.991V14.212H19.6518V19.1512C19.113 19.4623 18.4488 19.4568 17.9153 19.1359ZM19.6516 7.92206V12.4541H12.2793V7.92206H19.6516Z" fill="black"/>
<path d="M5.25856 25.0925L6.4753 24.3791C7.0166 24.0617 7.687 24.0653 8.22464 24.3887L9.3631 25.0731C10.4519 25.7277 11.8089 25.735 12.9048 25.0925L14.1216 24.3791C14.6629 24.0617 15.3333 24.0653 15.8711 24.3887L17.0094 25.0731C18.0981 25.7277 19.4552 25.7352 20.5513 25.0925L21.768 24.3791C22.3093 24.0617 22.9795 24.0653 23.5174 24.3887L24.6556 25.0731C25.2058 25.4038 25.8243 25.5693 26.4429 25.5693C27.049 25.5693 27.6553 25.4105 28.1976 25.0925L29.4154 24.3784L28.5262 22.8621L27.3083 23.5762C26.7677 23.8932 26.0985 23.8895 25.5615 23.5666L24.4231 22.8822C23.3336 22.2269 21.9756 22.2196 20.8788 22.8628L19.6621 23.5762C19.1217 23.8932 18.4522 23.8895 17.9153 23.5666L16.777 22.8822C15.6873 22.2269 14.3291 22.2196 13.2326 22.8628L12.0158 23.5762C11.4754 23.8932 10.806 23.8895 10.269 23.5666L9.13078 22.8822C8.04108 22.2269 6.68289 22.2196 5.58632 22.8628L4.36958 23.5762C3.82896 23.8932 3.15971 23.8895 2.62276 23.5666L1.49185 22.8868L0.585938 24.3931L1.71684 25.0731C2.80563 25.7277 4.16267 25.7352 5.25856 25.0925Z" fill="black"/>
<path d="M27.3083 28.0069C26.7677 28.3239 26.0985 28.3202 25.5615 27.9973L24.4231 27.3129C23.3336 26.6576 21.9754 26.6501 20.8788 27.2932L19.6621 28.0069C19.1215 28.3239 18.4522 28.3202 17.9153 27.9973L16.7768 27.3129C15.6873 26.6576 14.3291 26.6503 13.2326 27.2932L12.0158 28.0069C11.4754 28.3237 10.806 28.3202 10.269 27.9973L9.13055 27.3129C8.04108 26.6576 6.68289 26.6503 5.58632 27.2932L4.36958 28.0069C3.82896 28.3237 3.15971 28.3202 2.62276 27.9973L1.49185 27.3173L0.585938 28.8238L1.71684 29.5038C2.8054 30.1582 4.16267 30.1657 5.25856 29.5232L6.4753 28.8096C7.0166 28.4921 7.687 28.496 8.22464 28.8192L9.3631 29.5038C10.4519 30.1584 11.8089 30.1657 12.9048 29.5232L14.1216 28.8096C14.6629 28.4921 15.3333 28.496 15.8711 28.8192L17.0094 29.5038C18.0981 30.1582 19.4552 30.1657 20.5513 29.5232L21.768 28.8096C22.3093 28.4921 22.9795 28.496 23.5174 28.8192L24.6556 29.5038C25.2058 29.8345 25.8243 30 26.4429 30C27.049 30 27.6553 29.8412 28.1976 29.5232L29.4154 28.8089L28.5262 27.2926L27.3083 28.0069Z" fill="black"/>
</svg>
