<svg width="31" height="31" viewBox="0 0 31 31" fill="none" xmlns="http://www.w3.org/2000/svg">
<path d="M28.054 15.0231C28.4675 14.9808 28.7687 14.6119 28.7264 14.199C28.0826 7.83891 23.1662 2.92626 16.9883 2.14786L17.1522 1.50912C17.2459 1.13985 17.1641 0.742297 16.9328 0.445582C16.7124 0.161813 16.3847 0 16.0325 0H14.5169C14.1547 0 13.8202 0.17033 13.5998 0.467385C13.3692 0.778407 13.2993 1.1872 13.4121 1.5609L13.5875 2.14343C7.36813 2.91127 2.4347 7.85663 1.81572 14.2593C1.77586 14.6729 2.07837 15.0405 2.49193 15.0813C2.51646 15.0834 2.54099 15.0841 2.56551 15.0841C2.94875 15.0841 3.27579 14.7935 3.3136 14.4041C3.91248 8.20614 9.05473 3.53162 15.2738 3.53162C21.4646 3.53162 26.6038 8.1823 27.2293 14.3496C27.2715 14.7635 27.6414 15.0636 28.054 15.0231ZM14.9669 1.50401H15.5995L15.4636 2.03612C15.3999 2.03544 15.3379 2.02726 15.2738 2.02726C15.2237 2.02726 15.1757 2.0334 15.126 2.03408L14.9669 1.50401Z" fill="black"/>
<path d="M29.9899 15.8952H0.752176C0.337253 15.8952 0 16.2324 0 16.6477C0 17.063 0.337253 17.4002 0.752176 17.4002H1.27407C1.60791 18.6433 2.73413 19.5658 4.08212 19.5658H6.94809C7.88456 20.7066 10.6722 24.0846 10.6722 24.0846C10.6913 24.1068 10.7114 24.1286 10.7332 24.1497L15.1535 28.3671L15.5988 28.7537L14.9958 29.1724C14.6552 29.4098 14.5703 29.8796 14.8078 30.2196C14.9543 30.4304 15.1886 30.5435 15.4257 30.5435C15.5749 30.5435 15.7245 30.4992 15.8553 30.4083L21.669 26.3415L23.7402 28.2867C23.8857 28.4236 24.071 28.4911 24.256 28.4911C24.4559 28.4911 24.6562 28.4117 24.8041 28.2543C25.0885 27.9508 25.0735 27.4745 24.7714 27.1908L22.1878 24.7632C21.9517 24.5421 21.6135 24.5108 21.3382 24.6488C21.2278 24.2894 21.2142 23.9078 21.3116 23.5368C21.4687 22.9414 21.7688 22.3841 22.1786 21.9269L23.8966 20.0144C24.0093 19.8894 24.0741 19.7307 24.086 19.5661H26.4672C27.8145 19.5661 28.94 18.6436 29.2739 17.4005H29.9899C30.4059 17.4005 30.7425 17.0633 30.7425 16.648C30.7425 16.2328 30.4055 15.8952 29.9899 15.8952ZM21.0592 20.9219C20.4903 21.5559 20.0737 22.3268 19.8564 23.1536C19.6376 23.9865 19.7269 24.8535 20.105 25.6196L16.8732 27.868L16.167 27.2555L11.8045 23.0916C11.5742 22.8136 10.0007 20.9056 8.89768 19.5658H10.0219C10.0219 19.5658 12.5673 21.7388 12.5863 21.7525C13.4363 22.352 15.3869 22.8855 16.3268 22.8855C17.6581 22.8855 18.9444 22.3241 19.856 21.3454C20.1612 21.018 20.4426 20.7281 20.6613 20.505C21.0303 20.1285 21.4346 19.8543 21.8622 19.6888C22.025 19.6268 22.1589 19.592 22.2665 19.5757L21.0592 20.9219ZM18.7567 20.3186C18.1278 20.9938 17.2421 21.3808 16.3268 21.3808C15.61 21.3808 14.0372 20.9141 13.4782 20.5397L12.3383 19.5658H19.4748C19.2684 19.779 19.0258 20.0301 18.7567 20.3186ZM26.4672 18.0614H22.4137C22.4028 18.0614 22.3915 18.0614 22.3796 18.0614H4.08212C3.57931 18.0614 3.13645 17.7971 2.88607 17.4002H27.6619C27.4115 17.7971 26.97 18.0614 26.4672 18.0614Z" fill="black"/>
<path d="M24.2004 12.3922C24.5973 12.2692 24.8187 11.8471 24.6951 11.4506C23.2922 6.94605 19.3171 5.64711 19.1485 5.59329C18.7543 5.47099 18.3322 5.68799 18.2065 6.08316C18.0808 6.47764 18.2989 6.90108 18.6937 7.02815C18.832 7.07311 22.0958 8.16527 23.2578 11.8972C23.3587 12.2198 23.6554 12.4266 23.9763 12.4266C24.0509 12.4269 24.1265 12.4153 24.2004 12.3922Z" fill="black"/>
</svg>
