<svg width="30" height="25" viewBox="0 0 30 25" fill="none" xmlns="http://www.w3.org/2000/svg">
<path d="M3.80688 9.64282V3.0781C3.80688 1.93039 4.73744 1 5.88532 1H24.1147C25.2625 1 26.1931 1.93039 26.1931 3.0781V9.64282M27.5483 13.1207V11.749C27.5483 10.5858 26.6051 9.6428 25.4417 9.6428H4.55828C3.39488 9.6428 2.45177 10.5858 2.45177 11.749V13.1207M12.4608 9.64282C13.0551 9.64282 13.5368 9.16113 13.5368 8.56691V7.2408C13.5368 6.64665 13.0551 6.16495 12.4608 6.16495H7.78168C7.18735 6.16495 6.7056 6.64665 6.7056 7.2408V8.56691C6.7056 9.16113 7.18735 9.64282 7.78168 9.64282M22.2184 9.64282C22.8127 9.64282 23.2944 9.16113 23.2944 8.56691V7.2408C23.2944 6.64665 22.8127 6.16495 22.2184 6.16495H17.5393C16.945 6.16495 16.4632 6.64665 16.4632 7.2408V8.56691C16.4632 9.16113 16.945 9.64282 17.5393 9.64282M2.85455 21.9016V23.5529M27.1454 21.9016V23.5529M27.9203 21.9016H2.0798C1.48343 21.9016 1 21.4181 1 20.8218V14.2004C1 13.6041 1.48343 13.1207 2.0798 13.1207H27.9203C28.5166 13.1207 29 13.6041 29 14.2004V20.8218C29 21.4181 28.5166 21.9016 27.9203 21.9016Z" stroke="black" stroke-width="1.8" stroke-miterlimit="10" stroke-linecap="round" stroke-linejoin="round"/>
</svg>
