<svg width="50" height="50" viewBox="0 0 50 50" fill="none" xmlns="http://www.w3.org/2000/svg">
<rect width="50" height="50" rx="8" fill="black"/>
<path d="M35.4687 11.666H34.3237C33.0153 11.666 31.9089 12.5482 31.5682 13.7489H30.1267C28.9782 13.7489 28.0438 14.6832 28.0438 15.8317C28.0438 16.9801 28.9782 17.9146 30.1267 17.9146H35.4687C37.0479 17.9146 38.3327 16.6298 38.3327 15.0506V14.53C38.3327 12.9508 37.0479 11.666 35.4687 11.666Z" fill="white"/>
<path d="M17.7193 13.3298C17.4324 12.3687 16.5405 11.666 15.4872 11.666H15.3023C14.2492 11.666 13.3573 12.3687 13.0704 13.3298C12.2658 13.6126 11.6872 14.3805 11.6872 15.2807V15.3564C11.6872 16.4963 12.6145 17.4237 13.7544 17.4237H17.0353C18.1752 17.4237 19.1025 16.4963 19.1025 15.3564V15.2807C19.1025 14.3807 18.5243 13.6128 17.7193 13.3298Z" fill="white"/>
<path d="M33.2244 30.7757L34.6612 29.1646L32.348 23.2297L31.4434 25.1365L30.0575 22.2149L28.9469 24.2384L30.8018 29.6185L33.2244 30.7757Z" fill="white"/>
<path d="M22.243 26.7352L25.1383 29.5627L27.6853 25.3717L25.6962 19.6024L24.7009 20.7405L22.0806 15.43L18.2383 23.115L16.7421 22.6881L15.5118 26.7506L19.1192 29.015L22.243 26.7352Z" fill="white"/>
<path d="M38.3254 37.2149V35.6528H37.1901L35.2978 30.7977L33.6096 32.6908L31.5163 31.6908L32.8822 35.6528H31.23L28.3469 27.2908L25.4528 32.0532L22.0967 28.7758L19.1851 30.9008L15.0425 28.3003L12.8157 35.6528H11.666V37.2149H38.3254Z" fill="white"/>
</svg>
