<svg width="50" height="50" viewBox="0 0 50 50" fill="none" xmlns="http://www.w3.org/2000/svg">
<rect width="50" height="50" rx="8" fill="black"/>
<path d="M24.9993 20.0664C26.4721 20.0664 27.666 18.8725 27.666 17.3997C27.666 15.927 26.4721 14.7331 24.9993 14.7331C23.5266 14.7331 22.3327 15.927 22.3327 17.3997C22.3327 18.8725 23.5266 20.0664 24.9993 20.0664Z" fill="white"/>
<path d="M24.9993 13.8442C25.1172 13.8442 25.2303 13.7974 25.3136 13.714C25.397 13.6307 25.4438 13.5176 25.4438 13.3997V12.5109C25.4438 12.393 25.397 12.2799 25.3136 12.1966C25.2303 12.1132 25.1172 12.0664 24.9993 12.0664C24.8815 12.0664 24.7684 12.1132 24.6851 12.1966C24.6017 12.2799 24.5549 12.393 24.5549 12.5109V13.3997C24.5549 13.5176 24.6017 13.6307 24.6851 13.714C24.7684 13.7974 24.8815 13.8442 24.9993 13.8442Z" fill="white"/>
<path d="M24.9993 20.9553C24.8815 20.9553 24.7684 21.0021 24.6851 21.0855C24.6017 21.1688 24.5549 21.2819 24.5549 21.3997V22.2886C24.5549 22.4065 24.6017 22.5195 24.6851 22.6029C24.7684 22.6862 24.8815 22.7331 24.9993 22.7331C25.1172 22.7331 25.2303 22.6862 25.3136 22.6029C25.397 22.5195 25.4438 22.4065 25.4438 22.2886V21.3997C25.4438 21.2819 25.397 21.1688 25.3136 21.0855C25.2303 21.0021 25.1172 20.9553 24.9993 20.9553Z" fill="white"/>
<path d="M29.8882 16.9553H28.9993C28.8815 16.9553 28.7684 17.0021 28.6851 17.0855C28.6017 17.1688 28.5549 17.2819 28.5549 17.3997C28.5549 17.5176 28.6017 17.6307 28.6851 17.714C28.7684 17.7974 28.8815 17.8442 28.9993 17.8442H29.8882C30.0061 17.8442 30.1192 17.7974 30.2025 17.714C30.2859 17.6307 30.3327 17.5176 30.3327 17.3997C30.3327 17.2819 30.2859 17.1688 30.2025 17.0855C30.1192 17.0021 30.0061 16.9553 29.8882 16.9553Z" fill="white"/>
<path d="M21.4438 17.3997C21.4438 17.2819 21.397 17.1688 21.3136 17.0855C21.2303 17.0021 21.1172 16.9553 20.9993 16.9553H20.1105C19.9926 16.9553 19.8795 17.0021 19.7962 17.0855C19.7128 17.1688 19.666 17.2819 19.666 17.3997C19.666 17.5176 19.7128 17.6307 19.7962 17.714C19.8795 17.7974 19.9926 17.8442 20.1105 17.8442H20.9993C21.1172 17.8442 21.2303 17.7974 21.3136 17.714C21.397 17.6307 21.4438 17.5176 21.4438 17.3997Z" fill="white"/>
<path d="M27.8277 15.0162C27.9456 15.0161 28.0586 14.9693 28.1419 14.8859L28.7704 14.2571C28.8128 14.2161 28.8467 14.167 28.87 14.1128C28.8933 14.0586 28.9055 14.0002 28.9061 13.9412C28.9066 13.8822 28.8953 13.8237 28.873 13.7691C28.8506 13.7145 28.8176 13.6648 28.7759 13.6231C28.7342 13.5814 28.6845 13.5484 28.6299 13.526C28.5753 13.5037 28.5168 13.4924 28.4578 13.4929C28.3988 13.4935 28.3404 13.5057 28.2862 13.529C28.232 13.5523 28.1829 13.5862 28.1419 13.6286L27.5135 14.2575C27.4514 14.3197 27.4091 14.3988 27.3919 14.485C27.3748 14.5712 27.3836 14.6606 27.4172 14.7418C27.4508 14.823 27.5078 14.8924 27.5809 14.9412C27.6539 14.9901 27.7398 15.0161 27.8277 15.0162Z" fill="white"/>
<path d="M21.8567 19.914L21.2283 20.5428C21.1858 20.5838 21.152 20.6329 21.1287 20.6871C21.1054 20.7413 21.0931 20.7997 21.0926 20.8587C21.0921 20.9177 21.1033 20.9762 21.1257 21.0308C21.148 21.0854 21.181 21.1351 21.2228 21.1768C21.2645 21.2185 21.3141 21.2515 21.3687 21.2739C21.4233 21.2962 21.4819 21.3075 21.5409 21.307C21.5999 21.3064 21.6582 21.2942 21.7124 21.2709C21.7667 21.2476 21.8157 21.2137 21.8567 21.1713L22.4852 20.5424C22.5661 20.4586 22.6109 20.3463 22.6099 20.2298C22.6089 20.1132 22.5621 20.0018 22.4797 19.9194C22.3973 19.837 22.2859 19.7902 22.1693 19.7892C22.0528 19.7882 21.9405 19.833 21.8567 19.914Z" fill="white"/>
<path d="M28.142 19.914C28.0581 19.833 27.9459 19.7882 27.8293 19.7892C27.7128 19.7902 27.6013 19.837 27.5189 19.9194C27.4365 20.0018 27.3898 20.1132 27.3888 20.2298C27.3878 20.3463 27.4326 20.4586 27.5135 20.5424L28.142 21.1713C28.2258 21.2522 28.3381 21.297 28.4546 21.296C28.5711 21.295 28.6826 21.2483 28.765 21.1659C28.8474 21.0835 28.8941 20.972 28.8952 20.8555C28.8962 20.7389 28.8514 20.6267 28.7704 20.5428L28.142 19.914Z" fill="white"/>
<path d="M21.8567 14.886C21.9405 14.9669 22.0528 15.0117 22.1693 15.0107C22.2859 15.0097 22.3973 14.9629 22.4798 14.8805C22.5622 14.7981 22.6089 14.6867 22.6099 14.5701C22.6109 14.4536 22.5661 14.3413 22.4852 14.2575L21.8567 13.6286C21.7729 13.5477 21.6606 13.5029 21.5441 13.5039C21.4276 13.5049 21.3161 13.5516 21.2337 13.634C21.1513 13.7164 21.1045 13.8279 21.1035 13.9444C21.1025 14.061 21.1473 14.1732 21.2283 14.2571L21.8567 14.886Z" fill="white"/>
<path d="M28.4247 30.8633L16.8691 19.3078C16.7917 19.2304 16.6886 19.1844 16.5793 19.1784C16.4701 19.1724 16.3625 19.2069 16.2771 19.2753L11.8327 22.8309C11.7807 22.8725 11.7388 22.9252 11.7099 22.9852C11.6811 23.0452 11.6661 23.111 11.666 23.1775V31.1775C11.666 31.2954 11.7128 31.4085 11.7962 31.4918C11.8795 31.5752 11.9926 31.622 12.1105 31.622H28.1105C28.1983 31.622 28.2843 31.5959 28.3573 31.547C28.4304 31.4982 28.4874 31.4288 28.521 31.3476C28.5546 31.2664 28.5634 31.1771 28.5463 31.0909C28.5291 31.0047 28.4868 30.9255 28.4247 30.8633Z" fill="white"/>
<path d="M38.1104 24.1273L32.7771 21.0162C32.7083 20.976 32.6299 20.955 32.5503 20.9555C32.4706 20.956 32.3925 20.9779 32.3242 21.0189L24.5202 25.7024L29.0535 30.2358C29.2314 30.4136 29.3551 30.6383 29.41 30.8838C29.465 31.1293 29.4489 31.3853 29.3637 31.622H37.8882C38.0061 31.622 38.1191 31.5752 38.2025 31.4918C38.2858 31.4085 38.3326 31.2954 38.3326 31.1775V24.5109C38.3324 24.4331 38.3117 24.3567 38.2727 24.2894C38.2338 24.2221 38.1778 24.1662 38.1104 24.1273Z" fill="white"/>
<path d="M24.5549 36.9553H21.8882C21.7704 36.9553 21.6573 36.9085 21.574 36.8251C21.4906 36.7418 21.4438 36.6287 21.4438 36.5108C21.4438 36.393 21.4906 36.2799 21.574 36.1966C21.6573 36.1132 21.7704 36.0664 21.8882 36.0664H24.5549C24.6728 36.0664 24.7858 36.1132 24.8692 36.1966C24.9525 36.2799 24.9993 36.393 24.9993 36.5108C24.9993 36.6287 24.9525 36.7418 24.8692 36.8251C24.7858 36.9085 24.6728 36.9553 24.5549 36.9553Z" fill="white"/>
<path d="M17.4438 36.9553H12.1105C11.9926 36.9553 11.8795 36.9085 11.7962 36.8251C11.7128 36.7418 11.666 36.6287 11.666 36.5108C11.666 36.393 11.7128 36.2799 11.7962 36.1966C11.8795 36.1132 11.9926 36.0664 12.1105 36.0664H17.4438C17.5617 36.0664 17.6747 36.1132 17.7581 36.1966C17.8414 36.2799 17.8882 36.393 17.8882 36.5108C17.8882 36.6287 17.8414 36.7418 17.7581 36.8251C17.6747 36.9085 17.5617 36.9553 17.4438 36.9553Z" fill="white"/>
<path d="M34.3327 36.9553H28.9993C28.8815 36.9553 28.7684 36.9085 28.6851 36.8251C28.6017 36.7418 28.5549 36.6287 28.5549 36.5108C28.5549 36.393 28.6017 36.2799 28.6851 36.1966C28.7684 36.1132 28.8815 36.0664 28.9993 36.0664H34.3327C34.4506 36.0664 34.5636 36.1132 34.647 36.1966C34.7303 36.2799 34.7771 36.393 34.7771 36.5108C34.7771 36.6287 34.7303 36.7418 34.647 36.8251C34.5636 36.9085 34.4506 36.9553 34.3327 36.9553Z" fill="white"/>
<path d="M26.3327 35.1775H23.666C23.5481 35.1775 23.4351 35.1307 23.3517 35.0473C23.2684 34.964 23.2216 34.8509 23.2216 34.7331C23.2216 34.6152 23.2684 34.5022 23.3517 34.4188C23.4351 34.3355 23.5481 34.2886 23.666 34.2886H26.3327C26.4506 34.2886 26.5636 34.3355 26.647 34.4188C26.7303 34.5022 26.7771 34.6152 26.7771 34.7331C26.7771 34.8509 26.7303 34.964 26.647 35.0473C26.5636 35.1307 26.4506 35.1775 26.3327 35.1775Z" fill="white"/>
<path d="M36.1105 35.1775H29.8882C29.7704 35.1775 29.6573 35.1307 29.574 35.0473C29.4906 34.964 29.4438 34.8509 29.4438 34.7331C29.4438 34.6152 29.4906 34.5022 29.574 34.4188C29.6573 34.3355 29.7704 34.2886 29.8882 34.2886H36.1105C36.2283 34.2886 36.3414 34.3355 36.4247 34.4188C36.5081 34.5022 36.5549 34.6152 36.5549 34.7331C36.5549 34.8509 36.5081 34.964 36.4247 35.0473C36.3414 35.1307 36.2283 35.1775 36.1105 35.1775Z" fill="white"/>
<path d="M20.9993 35.1775H15.666C15.5481 35.1775 15.4351 35.1307 15.3517 35.0473C15.2684 34.964 15.2216 34.8509 15.2216 34.7331C15.2216 34.6152 15.2684 34.5022 15.3517 34.4188C15.4351 34.3355 15.5481 34.2886 15.666 34.2886H20.9993C21.1172 34.2886 21.2303 34.3355 21.3136 34.4188C21.397 34.5022 21.4438 34.6152 21.4438 34.7331C21.4438 34.8509 21.397 34.964 21.3136 35.0473C21.2303 35.1307 21.1172 35.1775 20.9993 35.1775Z" fill="white"/>
<path d="M13.8882 35.1775C14.1337 35.1775 14.3327 34.9785 14.3327 34.7331C14.3327 34.4876 14.1337 34.2886 13.8882 34.2886C13.6428 34.2886 13.4438 34.4876 13.4438 34.7331C13.4438 34.9785 13.6428 35.1775 13.8882 35.1775Z" fill="white"/>
<path d="M28.1105 35.1775C28.3559 35.1775 28.5549 34.9785 28.5549 34.7331C28.5549 34.4876 28.3559 34.2886 28.1105 34.2886C27.865 34.2886 27.666 34.4876 27.666 34.7331C27.666 34.9785 27.865 35.1775 28.1105 35.1775Z" fill="white"/>
<path d="M18.3327 33.3997H12.1105C11.9926 33.3997 11.8795 33.3529 11.7962 33.2696C11.7128 33.1862 11.666 33.0732 11.666 32.9553C11.666 32.8374 11.7128 32.7244 11.7962 32.641C11.8795 32.5577 11.9926 32.5108 12.1105 32.5108H18.3327C18.4506 32.5108 18.5636 32.5577 18.647 32.641C18.7303 32.7244 18.7771 32.8374 18.7771 32.9553C18.7771 33.0732 18.7303 33.1862 18.647 33.2696C18.5636 33.3529 18.4506 33.3997 18.3327 33.3997Z" fill="white"/>
<path d="M28.9993 33.3997H21.8882C21.7704 33.3997 21.6573 33.3529 21.574 33.2696C21.4906 33.1862 21.4438 33.0732 21.4438 32.9553C21.4438 32.8374 21.4906 32.7244 21.574 32.641C21.6573 32.5577 21.7704 32.5108 21.8882 32.5108H28.9993C29.1172 32.5108 29.2303 32.5577 29.3136 32.641C29.397 32.7244 29.4438 32.8374 29.4438 32.9553C29.4438 33.0732 29.397 33.1862 29.3136 33.2696C29.2303 33.3529 29.1172 33.3997 28.9993 33.3997Z" fill="white"/>
<path d="M37.8882 33.3997H34.3327C34.2148 33.3997 34.1018 33.3529 34.0184 33.2696C33.9351 33.1862 33.8882 33.0732 33.8882 32.9553C33.8882 32.8374 33.9351 32.7244 34.0184 32.641C34.1018 32.5577 34.2148 32.5108 34.3327 32.5108H37.8882C38.0061 32.5108 38.1192 32.5577 38.2025 32.641C38.2859 32.7244 38.3327 32.8374 38.3327 32.9553C38.3327 33.0732 38.2859 33.1862 38.2025 33.2696C38.1192 33.3529 38.0061 33.3997 37.8882 33.3997Z" fill="white"/>
<path d="M30.7771 33.3997C31.0226 33.3997 31.2216 33.2008 31.2216 32.9553C31.2216 32.7098 31.0226 32.5108 30.7771 32.5108C30.5317 32.5108 30.3327 32.7098 30.3327 32.9553C30.3327 33.2008 30.5317 33.3997 30.7771 33.3997Z" fill="white"/>
<path d="M27.2216 38.7331H21.8882C21.7704 38.7331 21.6573 38.6862 21.574 38.6029C21.4906 38.5195 21.4438 38.4065 21.4438 38.2886C21.4438 38.1708 21.4906 38.0577 21.574 37.9744C21.6573 37.891 21.7704 37.8442 21.8882 37.8442H27.2216C27.3394 37.8442 27.4525 37.891 27.5358 37.9744C27.6192 38.0577 27.666 38.1708 27.666 38.2886C27.666 38.4065 27.6192 38.5195 27.5358 38.6029C27.4525 38.6862 27.3394 38.7331 27.2216 38.7331Z" fill="white"/>
<path d="M36.9993 38.7331H31.666C31.5481 38.7331 31.4351 38.6862 31.3517 38.6029C31.2684 38.5195 31.2216 38.4065 31.2216 38.2886C31.2216 38.1708 31.2684 38.0577 31.3517 37.9744C31.4351 37.891 31.5481 37.8442 31.666 37.8442H36.9993C37.1172 37.8442 37.2303 37.891 37.3136 37.9744C37.397 38.0577 37.4438 38.1708 37.4438 38.2886C37.4438 38.4065 37.397 38.5195 37.3136 38.6029C37.2303 38.6862 37.1172 38.7331 36.9993 38.7331Z" fill="white"/>
<path d="M16.5549 38.7331H14.7771C14.6593 38.7331 14.5462 38.6862 14.4629 38.6029C14.3795 38.5195 14.3327 38.4065 14.3327 38.2886C14.3327 38.1708 14.3795 38.0577 14.4629 37.9744C14.5462 37.891 14.6593 37.8442 14.7771 37.8442H16.5549C16.6728 37.8442 16.7858 37.891 16.8692 37.9744C16.9525 38.0577 16.9993 38.1708 16.9993 38.2886C16.9993 38.4065 16.9525 38.5195 16.8692 38.6029C16.7858 38.6862 16.6728 38.7331 16.5549 38.7331Z" fill="white"/>
<path d="M19.2216 38.7331C19.467 38.7331 19.666 38.5341 19.666 38.2886C19.666 38.0432 19.467 37.8442 19.2216 37.8442C18.9761 37.8442 18.7771 38.0432 18.7771 38.2886C18.7771 38.5341 18.9761 38.7331 19.2216 38.7331Z" fill="white"/>
</svg>
