<svg width="31" height="31" viewBox="0 0 31 31" fill="none" xmlns="http://www.w3.org/2000/svg">
<path d="M27.3672 11.0348H25.5508V5.13685L15.5 0L5.44922 5.13685V11.0347H3.63281C1.62968 11.0347 0 12.6681 0 14.6758C0 16.6835 1.62968 18.3169 3.63281 18.3169H7.20508V21.6545C7.20508 24.1642 9.24218 26.2059 11.7461 26.2059H14.5918V31H16.4082V26.2059H19.0117C21.5156 26.2059 23.5527 24.1642 23.5527 21.6545V18.3169H27.3672C29.3703 18.3169 31 16.6835 31 14.6758C31 12.6681 29.3703 11.0348 27.3672 11.0348ZM8.11328 16.4964H3.63281C2.63125 16.4964 1.81641 15.6797 1.81641 14.6759C1.81641 13.6721 2.63125 12.8554 3.63281 12.8554H8.11328C9.11485 12.8554 9.92969 13.6721 9.92969 14.6759C9.92969 15.6797 9.11485 16.4964 8.11328 16.4964ZM11.7461 24.3855C10.2437 24.3855 9.02148 23.1604 9.02148 21.6547V18.317H10.959V21.6547C10.959 22.6785 11.2982 23.6242 11.8697 24.3855H11.7461ZM14.5918 24.2289C13.5347 23.8531 12.7754 22.8413 12.7754 21.6547V18.317H14.5918V24.2289ZM21.7363 21.6547C21.7363 23.1198 20.5791 24.3187 19.1328 24.3824C19.7028 23.6217 20.041 22.677 20.041 21.6547V20.1375H18.2246V21.6547C18.2246 22.8413 17.4653 23.8531 16.4082 24.2289V18.317H21.7363V21.6547ZM16.4082 16.4964V9.21426H20.1016V16.4964H16.4082ZM23.7344 16.4964H21.918V7.39372H14.5918V16.4964H11.2586C11.5685 15.9606 11.7461 15.3386 11.7461 14.6759C11.7461 12.6682 10.1164 11.0348 8.11328 11.0348H7.26562V6.25212L15.5 2.04356L23.7344 6.25212V16.4964ZM27.3672 16.4964H25.5508V12.8554H27.3672C28.3688 12.8554 29.1836 13.6721 29.1836 14.6759C29.1836 15.6797 28.3688 16.4964 27.3672 16.4964Z" fill="black"/>
</svg>
