<svg width="50" height="50" viewBox="0 0 50 50" fill="none" xmlns="http://www.w3.org/2000/svg">
<rect width="50" height="50" rx="8" fill="black"/>
<path d="M14.1196 26.1245C14.2602 26.3621 14.5157 26.5077 14.7916 26.5077H15.6842L12.2915 32.5404C12.1589 32.7825 12.1637 33.0766 12.3043 33.3141C12.4449 33.5516 12.7004 33.6973 12.9763 33.6973H24.48C20.941 32.2414 18.4433 28.763 18.4433 24.7129C18.4433 22.6189 19.1186 20.593 20.3586 18.9272L19.9091 18.2023C19.772 17.9522 19.5095 17.7967 19.2243 17.7967C18.9391 17.7967 18.6766 17.9522 18.5395 18.2023L14.1068 25.3508C13.9742 25.5929 13.979 25.887 14.1196 26.1245Z" fill="white"/>
<path d="M27.2652 27.767L23.8548 24.3555C23.5498 24.0505 23.5498 23.5558 23.8548 23.2507C24.1598 22.9456 24.6543 22.9456 24.9593 23.2507L27.3987 25.6909V18.3083C27.3987 17.8768 27.7484 17.5271 28.1797 17.5271C28.611 17.5271 28.9607 17.8768 28.9607 18.3083V22.6462L31.6461 21.0952C32.0195 20.8795 32.4973 21.0075 32.7129 21.3812C32.9286 21.7549 32.8006 22.2327 32.4271 22.4484L28.9607 24.4504V32.8266C33.1031 32.4332 36.3541 28.9447 36.3541 24.7129C36.3541 22.7187 35.6375 20.828 34.3269 19.3404C34.4299 18.8859 34.4819 18.4203 34.4819 17.9508C34.4819 14.4854 31.6548 11.666 28.1797 11.666C24.7046 11.666 21.8774 14.4854 21.8774 17.9508C21.8774 18.4203 21.9295 18.8859 22.0325 19.3404C20.7219 20.828 20.0052 22.7187 20.0052 24.7129C20.0052 28.9447 23.2563 32.4332 27.3987 32.8266V27.8736C27.3514 27.8435 27.3065 27.8083 27.2652 27.767Z" fill="white"/>
<path d="M13.0219 15.6925C13.1555 15.5519 13.3251 15.451 13.5124 15.4008C13.8993 15.2972 14.3182 15.4258 14.5803 15.7283C14.7347 15.9066 14.9522 15.998 15.1709 15.998C15.2524 15.998 15.3339 15.9846 15.4126 15.9589C15.7109 15.896 15.9575 15.661 16.0188 15.3428C16.0945 14.9496 16.3933 14.6286 16.7799 14.525C16.9673 14.4748 17.1646 14.4773 17.3505 14.5323C17.7639 14.6545 18.1986 14.4184 18.3209 14.0046C18.4432 13.5907 18.2069 13.1562 17.7933 13.0339C17.3314 12.8973 16.8412 12.891 16.3757 13.0157C15.77 13.1781 15.2512 13.5553 14.9034 14.0567C14.3516 13.7965 13.7139 13.7292 13.1081 13.8915C12.6428 14.0163 12.2214 14.2669 11.8896 14.6163C11.5925 14.929 11.6051 15.4236 11.9178 15.7208C12.2304 16.0179 12.7248 16.0054 13.0219 15.6925Z" fill="white"/>
<path d="M37.5517 36.7702H28.9607L28.9607 32.8266C28.7036 32.8509 28.4432 32.864 28.1797 32.864C27.9163 32.864 27.6558 32.8509 27.3987 32.8266L27.3987 36.7702H20.7863V35.2598H17.6623V36.7702H12.447C12.0157 36.7702 11.666 37.12 11.666 37.5514C11.666 37.9829 12.0157 38.3327 12.447 38.3327H37.5517C37.983 38.3327 38.3327 37.9829 38.3327 37.5514C38.3327 37.12 37.983 36.7702 37.5517 36.7702Z" fill="white"/>
</svg>
