<svg width="37" height="29" viewBox="0 0 37 29" fill="none" xmlns="http://www.w3.org/2000/svg">
<path d="M18.5 21.4379C18.2718 21.4379 18.0544 21.3361 17.908 21.1604C12.5445 14.7224 12.5445 7.33932 17.908 0.90132C18.1993 0.54982 18.7991 0.54982 19.092 0.90132C24.4554 7.33932 24.4554 14.7224 19.092 21.1604C18.9455 21.3361 18.7281 21.4379 18.5 21.4379ZM18.5 2.63415C14.376 8.07932 14.376 13.9839 18.5 19.4291C22.6239 13.9839 22.6239 8.07932 18.5 2.63415Z" fill="black"/>
<path d="M18.5 28.3754C18.2719 28.3754 18.0545 28.2736 17.908 28.0979C16.6469 26.5839 15.6664 24.9852 14.9958 23.348C14.8355 22.9533 15.0236 22.5032 15.4167 22.3428C15.8114 22.1825 16.2615 22.3706 16.4219 22.7637C16.9229 23.9909 17.6197 25.198 18.4985 26.3635C19.3757 25.198 20.0725 23.9909 20.5751 22.7637C20.7354 22.3706 21.1856 22.1809 21.5803 22.3428C21.9749 22.5032 22.163 22.9533 22.0012 23.348C21.3305 24.9852 20.3516 26.5839 19.0889 28.0979C18.9456 28.2736 18.7282 28.3754 18.5 28.3754Z" fill="black"/>
<path d="M18.5139 21.4224C18.1208 21.4224 17.7847 21.1218 17.7477 20.7225C17.7091 20.2986 18.0205 19.9224 18.4445 19.8839C25.7705 19.2055 29.7989 15.4577 30.7316 8.43699C27.3584 8.89178 24.7145 10.0758 22.8583 11.9582C22.5561 12.2619 22.0674 12.2649 21.7683 11.9659C21.4646 11.6668 21.4615 11.1796 21.7591 10.8759C24.0485 8.55416 27.3368 7.18207 31.5348 6.79511C31.7583 6.77045 31.988 6.85524 32.1499 7.01711C32.3103 7.17899 32.3935 7.40407 32.3735 7.63224C31.6165 16.005 26.9776 20.6424 18.5879 21.4194C18.5617 21.4225 18.537 21.4224 18.5139 21.4224Z" fill="black"/>
<path d="M26.9884 25.3013C23.9976 25.3013 21.0052 24.1651 18.0314 21.8896C17.6922 21.6321 17.629 21.148 17.8864 20.8089C18.147 20.4697 18.6295 20.408 18.9672 20.6655C24.3568 24.7879 29.6047 24.7941 34.9928 20.6778C32.5462 18.8155 30.0964 17.7949 27.6992 17.6377C27.2752 17.6099 26.9545 17.243 26.9807 16.8175C27.01 16.3935 27.3369 16.0698 27.8009 16.0991C30.7717 16.2933 33.7733 17.6346 36.721 20.0827C36.8983 20.2292 37 20.4466 37 20.6747C37 20.9044 36.8998 21.1218 36.7225 21.2683C33.4958 23.9569 30.2414 25.3013 26.9884 25.3013Z" fill="black"/>
<path d="M10.0116 25.3013C6.75867 25.3013 3.50421 23.9569 0.2775 21.2683C0.100208 21.1218 0 20.9044 0 20.6747C0 20.4466 0.10175 20.2292 0.279042 20.0827C3.22671 17.6346 6.22833 16.2933 9.19913 16.0991C9.65546 16.0667 9.99154 16.3935 10.0193 16.8175C10.047 17.2414 9.72638 17.6099 9.30088 17.6377C6.90204 17.7949 4.45233 18.817 2.00725 20.6778C7.39229 24.7941 12.6432 24.7879 18.0329 20.6655C18.3705 20.408 18.8546 20.4697 19.1136 20.8089C19.371 21.1465 19.3078 21.6306 18.9687 21.8896C15.9948 24.1635 13.004 25.3013 10.0116 25.3013Z" fill="black"/>
<path d="M18.4861 21.4224C18.4614 21.4224 18.4383 21.4225 18.4136 21.4194C10.0239 20.6424 5.38502 16.0035 4.62806 7.63224C4.60647 7.40561 4.68972 7.17899 4.8516 7.01711C5.01347 6.85524 5.23702 6.77045 5.46672 6.79511C9.66468 7.18053 12.9515 8.55416 15.2424 10.8759C15.54 11.1796 15.5369 11.6668 15.2332 11.9659C14.9326 12.2649 14.4438 12.2619 14.1432 11.9582C12.2871 10.0758 9.64156 8.89332 6.26839 8.43699C7.19956 15.4577 11.2295 19.2055 18.5555 19.8839C18.9794 19.9224 19.2924 20.2986 19.2523 20.7225C19.2153 21.1218 18.8792 21.4224 18.4861 21.4224Z" fill="black"/>
</svg>
