<svg width="30" height="26" viewBox="0 0 30 26" fill="none" xmlns="http://www.w3.org/2000/svg">
<path d="M14.9414 25.3339C16.0093 25.3339 16.875 24.4682 16.875 23.4003C16.875 22.3325 16.0093 21.4668 14.9414 21.4668C13.8735 21.4668 13.0078 22.3325 13.0078 23.4003C13.0078 24.4682 13.8735 25.3339 14.9414 25.3339Z" fill="black"/>
<path d="M29.6854 7.07405C25.834 2.94185 20.6188 0.666074 14.9998 0.666016C9.38123 0.666074 4.16599 2.94185 0.314572 7.07405C-0.126638 7.54749 -0.100564 8.28905 0.372872 8.73032C0.846367 9.17153 1.58787 9.14551 2.02914 8.67202C5.43226 5.02069 10.0387 3.00982 15.0002 3.00976C19.9613 3.00982 24.5677 5.02069 27.9708 8.67202C28.2016 8.91963 28.5146 9.04491 28.8283 9.04491C29.1145 9.04491 29.4013 8.94073 29.6271 8.73032C30.1005 8.28899 30.1267 7.54749 29.6854 7.07405Z" fill="black"/>
<path d="M25.3824 11.9135C22.5355 9.04514 18.8483 7.46551 14.9998 7.46563C11.1505 7.46569 7.46322 9.04537 4.61721 11.9136C4.16135 12.3731 4.16422 13.1151 4.62366 13.5709C5.08309 14.0268 5.82506 14.0239 6.28092 13.5645C8.68355 11.143 11.78 9.80943 14.9998 9.80937C18.2188 9.80926 21.3153 11.1429 23.7188 13.5646C23.9479 13.7954 24.2492 13.9109 24.5506 13.9109C24.8489 13.9109 25.1475 13.7976 25.3762 13.5708C25.8355 13.1149 25.8383 12.3729 25.3824 11.9135Z" fill="black"/>
<path d="M20.6924 16.7671C19.1678 15.2566 16.9824 14.3183 14.9889 14.3183C14.9887 14.3183 14.9892 14.3183 14.9889 14.3183H14.9036C14.9033 14.3183 14.904 14.3183 14.9036 14.3183C12.9101 14.3183 10.7237 15.2567 9.19911 16.7671C8.73939 17.2226 8.73593 17.9646 9.19144 18.4243C9.4206 18.6556 9.72224 18.7715 10.0239 18.7715C10.322 18.7715 10.6202 18.6584 10.8486 18.4321C11.934 17.3568 13.5252 16.6621 14.9029 16.6621C14.9027 16.6621 14.903 16.6621 14.9029 16.6621H14.9882C14.988 16.6621 14.9885 16.6621 14.9882 16.6621C16.3657 16.6621 17.9576 17.3568 19.0428 18.4321C19.5025 18.8875 20.2446 18.8842 20.7 18.4243C21.1556 17.9646 21.1522 17.2226 20.6924 16.7671Z" fill="black"/>
</svg>
