<svg width="34" height="12" viewBox="0 0 34 12" fill="none" xmlns="http://www.w3.org/2000/svg">
<path d="M24.646 2.61175L21.5797 0.212891H12.7443H11.5727H9.81499V1.09174H11.5727L12.0124 4.60527C11.5383 4.69472 11.2718 4.74539 11.2718 4.74539L4.50373 6.47745L2.35132 9.73577L0 9.68948L0.952663 11.7875H28.2008C28.2008 11.7875 34.0125 5.46411 34 2.91325C33.9944 1.78732 29.5807 2.01 24.646 2.61175ZM12.8919 4.44577L12.4522 1.09362H12.7443H15.0887L15.5285 3.97913C14.4964 4.15678 13.595 4.31629 12.8919 4.44577ZM16.4073 3.82901L15.9688 1.09237H19.2065L19.7438 3.29419C18.5685 3.47309 17.4388 3.65762 16.4073 3.82901ZM20.6189 3.1597L20.0866 1.09237H21.1963L23.5739 2.74749C22.5881 2.87509 21.5935 3.01521 20.6189 3.1597Z" fill="black"/>
</svg>
