<svg width="24" height="24" viewBox="0 0 24 24" fill="none" xmlns="http://www.w3.org/2000/svg">
<path d="M17.9998 15.4998C17.8682 15.5006 17.7377 15.4753 17.6159 15.4256C17.4941 15.3758 17.3833 15.3025 17.2898 15.2098L12.7098 10.6198C12.6169 10.5261 12.5063 10.4517 12.3844 10.4009C12.2625 10.3502 12.1318 10.324 11.9998 10.324C11.8678 10.324 11.7371 10.3502 11.6152 10.4009C11.4934 10.4517 11.3828 10.5261 11.2898 10.6198L6.70982 15.2098C6.52152 15.3981 6.26612 15.5039 5.99982 15.5039C5.73352 15.5039 5.47812 15.3981 5.28982 15.2098C5.10152 15.0215 4.99573 14.7661 4.99573 14.4998C4.99573 14.3679 5.0217 14.2374 5.07216 14.1156C5.12262 13.9937 5.19658 13.883 5.28982 13.7898L9.87982 9.20982C10.4498 8.66225 11.2095 8.35645 11.9998 8.35645C12.7902 8.35645 13.5499 8.66225 14.1198 9.20982L18.7098 13.7898C18.8035 13.8828 18.8779 13.9934 18.9287 14.1152C18.9795 14.2371 19.0056 14.3678 19.0056 14.4998C19.0056 14.6318 18.9795 14.7625 18.9287 14.8844C18.8779 15.0062 18.8035 15.1168 18.7098 15.2098C18.6164 15.3025 18.5056 15.3758 18.3837 15.4256C18.2619 15.4753 18.1314 15.5006 17.9998 15.4998Z" fill="white"/>
</svg>
