<svg width="27" height="16" viewBox="0 0 27 16" fill="none" xmlns="http://www.w3.org/2000/svg">
<g clip-path="url(#clip0_2598_50667)">
<path d="M13.6294 13.9299C15.2472 12.4661 16.2584 10.3505 16.2584 7.99915C16.2584 5.64803 15.2472 3.53412 13.6294 2.07005C12.2139 0.783133 10.3225 0 8.26454 0C3.83933 0 0.258789 3.58118 0.258789 7.99915C0.258789 12.4188 3.83933 16 8.26454 16C10.3222 16.0002 12.2137 15.2154 13.6294 13.9299Z" fill="#0066CB"/>
<path d="M13.6289 13.9302C15.2467 12.4664 16.2579 10.3507 16.2579 7.99941C16.2579 5.6483 15.2467 3.53438 13.6289 2.07031" fill="#0066CB"/>
<path d="M13.6289 13.9302C15.2467 12.4664 16.2579 10.3507 16.2579 7.99941C16.2579 5.6483 15.2467 3.53438 13.6289 2.07031" stroke="#0066CB" stroke-width="0.3097"/>
<path d="M19.006 0C16.9362 0 15.0448 0.783133 13.6293 2.07005C13.3437 2.33322 13.0701 2.61599 12.8204 2.91813H14.4382C14.6643 3.18621 14.8666 3.46896 15.045 3.76471H12.2137C12.0472 4.03598 11.8926 4.31874 11.7498 4.6113H15.5087C15.6395 4.88598 15.7466 5.16853 15.8418 5.45939H11.4165C11.3214 5.73406 11.2381 6.01681 11.1787 6.30597H16.0798C16.1988 6.8519 16.2582 7.41893 16.2582 7.99915C16.2582 8.88768 16.1154 9.74257 15.8418 10.5404H11.4168C11.5119 10.831 11.619 11.1138 11.7498 11.3883H15.5087C15.3659 11.681 15.2232 11.9636 15.0448 12.2351H12.2135C12.392 12.5308 12.6062 12.8136 12.8204 13.0819H14.4382C14.1884 13.3838 13.9148 13.6666 13.6293 13.9297C15.0448 15.2152 16.9362 16 19.006 16C23.4193 16 26.9999 12.4188 26.9999 7.99915C26.9999 3.58118 23.4191 0 19.006 0Z" fill="#CC0001"/>
<path d="M26.1556 12.4433H26.1914C26.2035 12.4433 26.215 12.445 26.215 12.4399C26.2271 12.4335 26.2389 12.4237 26.2389 12.4141C26.2389 12.4041 26.2269 12.3945 26.215 12.3896C26.215 12.3847 26.1914 12.3862 26.1914 12.3862H26.1556V12.4433ZM26.1556 12.5732H26.1081V12.3458H26.2033C26.2269 12.3458 26.2389 12.3457 26.2627 12.3572C26.2746 12.3702 26.2863 12.3913 26.2863 12.4143C26.2863 12.4401 26.2744 12.4631 26.2506 12.4724L26.2863 12.5734H26.2269L26.2033 12.4824H26.1554V12.5732H26.1556ZM26.1914 12.6562C26.2985 12.6562 26.3937 12.5685 26.3937 12.4595C26.3937 12.3504 26.2985 12.2627 26.1914 12.2627C26.0845 12.2627 26.001 12.3504 26.001 12.4595C26.001 12.5685 26.0845 12.6562 26.1914 12.6562ZM25.9297 12.4595C25.9297 12.3164 26.0487 12.2012 26.1914 12.2012C26.3342 12.2012 26.4531 12.3164 26.4531 12.4595C26.4531 12.6025 26.334 12.7177 26.1914 12.7177C26.0487 12.7177 25.9297 12.6025 25.9297 12.4595Z" fill="#231F20"/>
<path d="M7.01522 10.2255H6.00404L6.59874 7.10721L5.2307 10.2255H4.39795L4.23144 7.12509L3.56542 10.2255H2.64941L3.42255 6.16992H5.00479L5.02842 8.6803L6.12285 6.16992H7.80006L7.01522 10.2255Z" fill="#231F20"/>
<path d="M18.1377 10.185C17.864 10.26 17.6498 10.2924 17.4239 10.2924C16.9125 10.2924 16.6387 10.0373 16.6387 9.56777C16.6387 9.47515 16.6387 9.37614 16.6623 9.2718L16.7217 8.94858L16.7694 8.6886L17.2334 6.16992H18.2207L18.078 6.92707H18.5895L18.4468 7.7281H17.9354L17.6737 9.10444C17.6618 9.16598 17.6618 9.21005 17.6618 9.24093C17.6618 9.41148 17.7569 9.48622 17.9948 9.48622C18.1138 9.48622 18.1969 9.47664 18.2684 9.45535L18.1377 10.185Z" fill="#231F20"/>
<path d="M14.1883 7.96817C14.1883 8.38572 14.4144 8.67189 14.9495 8.8878C15.3541 9.05367 15.4252 9.10242 15.4252 9.25189C15.4252 9.45843 15.2468 9.55063 14.8426 9.55063C14.5452 9.55063 14.2597 9.51039 13.9386 9.41925L13.8076 10.1811L13.8434 10.1877L14.0337 10.2218C14.0931 10.2316 14.1766 10.2414 14.2954 10.2509C14.5333 10.2688 14.7236 10.2788 14.8543 10.2788C15.9132 10.2788 16.401 9.92943 16.401 9.17717C16.401 8.72534 16.1988 8.45897 15.699 8.25883C15.2708 8.09147 15.2233 8.05569 15.2233 7.90153C15.2233 7.72267 15.3898 7.63176 15.7111 7.63176C15.9132 7.63176 16.1868 7.65135 16.4366 7.68222L16.5795 6.91846C16.3178 6.88268 15.9252 6.85352 15.699 6.85352C14.569 6.85352 14.1764 7.36049 14.1883 7.96817Z" fill="#231F20"/>
<path d="M9.56069 8.75694C9.45381 8.74544 9.40611 8.74245 9.33457 8.74245C8.77564 8.74245 8.49011 8.91131 8.49011 9.24433C8.49011 9.44895 8.63277 9.58074 8.84697 9.58074C9.25132 9.58095 9.54877 9.24454 9.56069 8.75694ZM10.2386 10.2259H9.4059L9.42975 9.8831C9.16806 10.1544 8.83505 10.2828 8.3828 10.2828C7.83558 10.2828 7.4668 9.91546 7.4668 9.38251C7.4668 8.5783 8.10919 8.11028 9.21533 8.11028C9.33436 8.11028 9.47702 8.11817 9.61989 8.13605C9.65545 8.02725 9.66737 7.98019 9.66737 7.92163C9.66737 7.70232 9.48894 7.62099 9.02498 7.62099C8.73945 7.62099 8.41835 7.65676 8.19223 7.71361L8.06128 7.74767L7.96611 7.76875L8.10876 7.02798C8.60828 6.90108 8.92937 6.85254 9.29816 6.85254C10.1545 6.85254 10.6068 7.18725 10.6068 7.82091C10.6068 7.98338 10.5949 8.10688 10.5235 8.47418L10.3213 9.64398L10.2857 9.8535L10.2619 10.0209L10.238 10.1363V10.2259" fill="#231F20"/>
<path d="M13.0225 8.19072C13.0225 8.12259 13.0344 8.06573 13.0344 8.02336C13.0344 7.75529 12.856 7.59751 12.5585 7.59751C12.2374 7.59751 12.0113 7.80873 11.9281 8.1888L13.0225 8.19072ZM13.5101 10.1537C13.1651 10.2448 12.8319 10.2885 12.487 10.2867C11.3689 10.2867 10.7979 9.77977 10.7979 8.8099C10.7979 7.67735 11.5354 6.84375 12.5347 6.84375C13.3553 6.84375 13.8789 7.31006 13.8789 8.04274C13.8789 8.28675 13.8431 8.52203 13.7479 8.85675H11.7733C11.7613 8.907 11.7613 8.92999 11.7613 8.96065C11.7613 9.34242 12.0588 9.53746 12.6416 9.53746C12.9984 9.53746 13.3197 9.47422 13.6766 9.32943L13.5101 10.1537Z" fill="#231F20"/>
<path d="M23.1221 8.33605C23.1221 7.99153 22.9794 7.6649 22.5751 7.6649C22.0636 7.6649 21.7544 8.26621 21.7544 8.79575C21.7544 9.24268 21.9684 9.54333 22.3255 9.53651C22.5395 9.53651 23.0035 9.24246 23.0867 8.72889C23.1101 8.6105 23.1221 8.47913 23.1221 8.33605ZM24.1332 8.73059C23.9904 9.82736 23.2172 10.3135 22.1943 10.3135C21.0761 10.3135 20.624 9.63105 20.624 8.79426C20.624 7.62424 21.3854 6.83301 22.5751 6.83301C23.6099 6.83301 24.1573 7.48456 24.1573 8.32157C24.1571 8.52449 24.1571 8.53896 24.1332 8.73059Z" fill="#231F20"/>
<path d="M24.4661 9.71865H24.5017C24.5017 9.71865 24.5138 9.71866 24.5256 9.71376C24.5373 9.70887 24.5375 9.69758 24.5375 9.68778C24.5375 9.67969 24.5375 9.6699 24.5256 9.66521C24.5256 9.66031 24.5017 9.66031 24.49 9.66031H24.4661V9.71865ZM24.4661 9.84705H24.4184V9.61965H24.5136C24.5256 9.61965 24.5494 9.62135 24.573 9.63285C24.585 9.64414 24.5967 9.66691 24.5967 9.68969C24.5967 9.71397 24.5848 9.73845 24.5611 9.74803L24.5967 9.84726H24.5373L24.5015 9.75783H24.4661V9.84705ZM24.5017 9.92987C24.609 9.92987 24.6923 9.84216 24.6923 9.73314C24.6923 9.62583 24.609 9.5381 24.5017 9.5381C24.3948 9.5381 24.2996 9.62583 24.2996 9.73314C24.2996 9.84216 24.3948 9.92987 24.5017 9.92987ZM24.2402 9.73314C24.2402 9.59176 24.3593 9.47656 24.5019 9.47656C24.6448 9.47656 24.7636 9.59176 24.7636 9.73314C24.7636 9.87623 24.6446 9.99141 24.5019 9.99141C24.359 9.99141 24.2402 9.87623 24.2402 9.73314Z" fill="white"/>
<path d="M7.26481 9.99112H6.26555L6.86025 6.87306L5.49221 9.99112H4.58813L4.42163 6.89264L3.82693 9.99112H2.92285L3.69598 5.93555H5.25416L5.32549 8.44764L6.43185 5.93555H8.04965L7.26481 9.99112Z" fill="white"/>
<path d="M18.3879 9.95237C18.1143 10.0271 17.9001 10.0595 17.6739 10.0595C17.1625 10.0595 16.8887 9.8029 16.8887 9.3351C16.8887 9.24227 16.9006 9.14347 16.9125 9.03935L16.9719 8.7157L17.0194 8.45402L17.4836 5.93555H18.4709L18.3283 6.69271H18.8397L18.6968 7.49543H18.1854L17.9237 8.87156C17.9118 8.93182 17.9118 8.97718 17.9118 9.00827C17.9118 9.17903 18.0189 9.25206 18.2567 9.25206C18.3638 9.25206 18.4473 9.24226 18.5184 9.22097L18.3879 9.95237Z" fill="white"/>
<path d="M20.9451 7.63983L20.9215 7.53592L21.1237 7.01915C21.0758 7.01426 21.0522 7.01277 21.0522 7.00958C20.9928 6.99808 20.9689 6.99168 20.957 6.99168C20.9334 6.98508 20.8976 6.9836 20.862 6.9836C20.529 6.9836 20.3029 7.12817 19.9935 7.51825L20.1008 6.93164H19.0658L18.459 10.2252H19.4465C19.5773 9.46949 19.6369 9.03917 19.7201 8.68146C19.8509 8.08846 20.2912 7.81868 20.6123 7.87873C20.6478 7.88533 20.6717 7.88533 20.7192 7.90321L20.7786 7.92579L20.9451 7.63983Z" fill="#231F20"/>
<path d="M21.2895 6.72069C21.2062 6.68811 21.1943 6.6881 21.1826 6.68491C21.1347 6.67341 21.0991 6.66703 21.0991 6.66532C21.0636 6.66043 21.0278 6.65723 20.992 6.65723C20.671 6.65723 20.4331 6.80351 20.1237 7.19359L20.2189 6.693H19.3148L18.708 9.99141H19.7073C20.0641 7.97502 20.2187 7.62092 20.6946 7.62092C20.7304 7.62092 20.7659 7.62412 20.8136 7.62902L20.9326 7.6533L21.2895 6.72069Z" fill="white"/>
<path d="M14.4381 7.73668C14.4381 8.15253 14.676 8.44019 15.2115 8.65631C15.6158 8.82048 15.6754 8.86924 15.6754 9.02042C15.6754 9.22504 15.497 9.31766 15.1044 9.31766C14.795 9.31766 14.5214 9.27699 14.2003 9.18756L14.0576 9.94813L14.1051 9.956L14.2835 9.98836C14.3429 10.0001 14.4383 10.0097 14.5571 10.018C14.795 10.0359 14.9734 10.0454 15.1044 10.0454C16.1747 10.0454 16.6625 9.69772 16.6625 8.94546C16.6625 8.49214 16.4605 8.22727 15.9488 8.02734C15.5325 7.85998 15.4846 7.82271 15.4846 7.66813C15.4846 7.49098 15.6514 7.40005 15.9724 7.40005C16.1745 7.40005 16.4364 7.41794 16.6981 7.44881L16.8408 6.68527C16.5791 6.64949 16.1867 6.62012 15.9488 6.62012C14.8308 6.62033 14.4381 7.12729 14.4381 7.73668Z" fill="white"/>
<path d="M9.77473 8.52282C9.66763 8.51153 9.61993 8.50982 9.5486 8.50982C8.98946 8.50982 8.70393 8.67867 8.70393 9.01168C8.70393 9.21652 8.83488 9.34811 9.06079 9.34811C9.46535 9.34832 9.75088 9.0102 9.77473 8.52282ZM10.5002 9.99156H9.66741L9.69126 9.65046C9.4415 9.92151 9.09656 10.0484 8.64431 10.0484C8.10902 10.0484 7.74023 9.68112 7.74023 9.14817C7.74023 8.34523 8.38262 7.87595 9.48877 7.87595C9.59587 7.87595 9.73853 7.88553 9.89311 7.90193C9.91696 7.79291 9.92867 7.74755 9.92867 7.68751C9.92867 7.46969 9.75024 7.38856 9.28628 7.38856C9.00074 7.38856 8.67944 7.42263 8.46545 7.47948L8.32279 7.51525L8.23954 7.53655L8.37049 6.79386C8.87001 6.66717 9.1911 6.62012 9.55989 6.62012C10.4163 6.62012 10.8685 6.95484 10.8685 7.58701C10.8685 7.74947 10.8566 7.87297 10.7972 8.24005L10.583 9.41178L10.5474 9.6213L10.5236 9.78864L10.5117 9.90214L10.5002 9.99156Z" fill="white"/>
<path d="M13.2367 7.95926C13.2367 7.88942 13.2367 7.83406 13.2367 7.7902C13.2367 7.52213 13.0702 7.36605 12.7728 7.36605C12.4517 7.36605 12.2255 7.57557 12.1304 7.95756L13.2367 7.95926ZM13.7603 9.92199C13.4271 10.0114 13.0941 10.0553 12.7489 10.0553C11.6308 10.0553 11.0479 9.54831 11.0479 8.57674C11.0479 7.44589 11.7852 6.6123 12.7845 6.6123C13.6053 6.6123 14.1287 7.0786 14.1287 7.80978C14.1287 8.05358 14.0929 8.29078 14.0094 8.62529H12.035C12.023 8.67575 12.023 8.69853 12.023 8.72919C12.023 9.11118 12.3203 9.30622 12.8914 9.30622C13.2482 9.30622 13.5695 9.24107 13.9262 9.09649L13.7603 9.92199Z" fill="white"/>
<path d="M23.3601 8.07399C23.3601 7.72948 23.2175 7.40306 22.8131 7.40306C22.3017 7.40306 21.9925 8.00415 21.9925 8.5339C21.9925 8.98232 22.2067 9.28318 22.5636 9.27637C22.7778 9.27637 23.2415 8.98233 23.3248 8.46875C23.3484 8.34845 23.3601 8.21708 23.3601 8.07399ZM24.3952 8.49664C24.2404 9.5932 23.4789 10.0806 22.4563 10.0806C21.3261 10.0806 20.874 9.39647 20.874 8.55967C20.874 7.39136 21.6472 6.59863 22.837 6.59863C23.8716 6.59863 24.419 7.25018 24.419 8.08697C24.419 8.29159 24.419 8.3048 24.3952 8.49664Z" fill="white"/>
</g>
<defs>
<clipPath id="clip0_2598_50667">
<rect width="26.7412" height="16" fill="white" transform="translate(0.258789)"/>
</clipPath>
</defs>
</svg>
