<svg width="28" height="16" viewBox="0 0 28 16" fill="none" xmlns="http://www.w3.org/2000/svg">
<g clip-path="url(#clip0_2598_50627)">
<path d="M27.6248 8.00005C27.626 12.4173 24.0461 15.9988 19.6289 16C15.2115 16.0011 11.6301 12.4213 11.6289 8.00411C11.6289 8.00266 11.6289 8.00149 11.6289 8.00005C11.6277 3.58291 15.2077 0.00117374 19.6247 2.88398e-07C24.042 -0.00117316 27.6236 3.57875 27.6248 7.99598C27.6248 7.99734 27.6248 7.9986 27.6248 8.00005Z" fill="#FF9900"/>
<path d="M8.84682 0.00199324C4.45577 0.0298853 0.900391 3.60232 0.900391 7.99996C0.900391 12.4148 4.48348 15.9978 8.89836 15.9978C10.9704 15.9978 12.8591 15.2082 14.2803 13.914C14.2803 13.914 14.2801 13.9138 14.2797 13.9136H14.2814C14.5724 13.6484 14.8439 13.3623 15.0934 13.0572H13.4548C13.236 12.7929 13.0371 12.5175 12.8585 12.2333H15.6845C15.8564 11.9583 16.012 11.6727 16.1501 11.3769H12.3919C12.2638 11.1023 12.1526 10.8215 12.0576 10.5366H16.4847C16.7515 9.73938 16.8963 8.88646 16.8963 7.99987C16.8963 7.41206 16.8326 6.83897 16.712 6.28718H11.8229C11.8834 6.0032 11.9599 5.72266 12.0511 5.44698H16.4798C16.3807 5.15362 16.2657 4.86775 16.1349 4.59064H12.3915C12.5265 4.30215 12.6795 4.02151 12.8504 3.75054H15.6743C15.4864 3.45113 15.2784 3.16507 15.0536 2.8941H13.4791C13.7225 2.6076 13.9905 2.33779 14.2814 2.08622C12.8601 0.791816 10.9709 0.00199324 8.89836 0.00199324C8.88112 0.00199324 8.86406 0.00190298 8.84682 0.00199324Z" fill="#CC0000"/>
<path d="M26.8223 12.1807C26.8658 12.1807 26.9081 12.1919 26.9495 12.2142C26.991 12.2364 27.0229 12.2684 27.046 12.31C27.0691 12.3512 27.0807 12.3946 27.0807 12.4395C27.0807 12.484 27.0692 12.5269 27.0465 12.5681C27.0238 12.6092 26.9919 12.6412 26.9507 12.664C26.91 12.6865 26.8669 12.6979 26.8222 12.6979C26.7774 12.6979 26.7344 12.6865 26.6935 12.664C26.6524 12.6411 26.6206 12.6092 26.5975 12.5681C26.5748 12.5269 26.5635 12.484 26.5635 12.4395C26.5635 12.3946 26.5749 12.3512 26.5981 12.31C26.6214 12.2684 26.6536 12.2366 26.6948 12.2142C26.7365 12.1919 26.7789 12.1807 26.8223 12.1807ZM26.8223 12.2235C26.7861 12.2235 26.7507 12.2329 26.7161 12.2516C26.6818 12.2703 26.655 12.2967 26.6357 12.3318C26.6161 12.3662 26.6064 12.402 26.6064 12.4395C26.6064 12.4767 26.6159 12.5127 26.6348 12.5468C26.6541 12.5808 26.6808 12.6075 26.7149 12.6267C26.7493 12.6457 26.785 12.6551 26.8222 12.6551C26.8595 12.6551 26.8953 12.6457 26.9295 12.6267C26.9636 12.6075 26.9903 12.5808 27.0093 12.5468C27.0282 12.5127 27.0376 12.4768 27.0376 12.4395C27.0376 12.402 27.028 12.3662 27.0086 12.3318C26.9893 12.2967 26.9624 12.2703 26.9279 12.2516C26.8937 12.2328 26.8585 12.2235 26.8223 12.2235ZM26.7089 12.5823V12.3041H26.8048C26.8373 12.3041 26.8609 12.3067 26.8755 12.3121C26.8901 12.3172 26.9018 12.326 26.9105 12.3389C26.9191 12.3516 26.9235 12.3652 26.9235 12.3796C26.9235 12.4 26.9163 12.4177 26.9017 12.4327C26.8874 12.4477 26.868 12.4562 26.844 12.458C26.8539 12.4621 26.8617 12.4673 26.8679 12.4729C26.8791 12.4837 26.8927 12.502 26.9089 12.5279L26.9428 12.5823H26.8881L26.8635 12.5386C26.8441 12.5041 26.8285 12.4826 26.8165 12.4738C26.8083 12.4675 26.7963 12.4643 26.7807 12.4643H26.7542V12.5826H26.7091M26.7538 12.4257H26.8084C26.8344 12.4257 26.852 12.4218 26.8614 12.4141C26.871 12.4061 26.8758 12.396 26.8758 12.3832C26.8758 12.3749 26.8736 12.3675 26.869 12.3612C26.8643 12.3546 26.858 12.3499 26.8498 12.3466C26.8418 12.3434 26.8268 12.3416 26.8049 12.3416H26.754V12.4257" fill="#FCB340"/>
<path d="M11.5521 10.2953L11.6586 9.5714C11.6003 9.5714 11.5148 9.59658 11.4391 9.59658C11.1427 9.59658 11.1057 9.43817 11.129 9.32245L11.4211 7.86647H11.8717L11.9646 7.04478H11.5399L11.6263 6.54688H10.7379C10.7192 6.56565 10.2354 9.34709 10.2354 9.68595C10.2354 10.1874 10.5168 10.4105 10.9138 10.407C11.2245 10.4044 11.4667 10.3183 11.5521 10.2953Z" fill="#000066"/>
<path d="M11.8213 8.91457C11.8213 10.118 12.6155 10.4039 13.2923 10.4039C13.9171 10.4039 14.2446 10.2591 14.2446 10.2591L14.3947 9.43766C14.3947 9.43766 13.8668 9.65231 13.4378 9.65231C12.5233 9.65231 12.6836 8.97044 12.6836 8.97044L14.4404 8.97577C14.4404 8.97577 14.5523 8.42416 14.5523 8.1993C14.5523 7.63812 14.2465 6.94922 13.3116 6.94922C12.4553 6.9494 11.8213 7.872 11.8213 8.91457ZM13.3148 7.71178C13.7954 7.71178 13.7068 8.25193 13.7068 8.29571H12.7613C12.7613 8.23974 12.8506 7.71178 13.3148 7.71178Z" fill="#000066"/>
<path d="M18.7072 10.2947L18.8596 9.36636C18.8596 9.36636 18.4415 9.57587 18.1549 9.57587C17.5508 9.57587 17.3084 9.11461 17.3084 8.61896C17.3084 7.61368 17.8282 7.06053 18.4068 7.06053C18.8408 7.06053 19.1889 7.30416 19.1889 7.30416L19.3279 6.40214C19.3279 6.40214 18.9168 6.10525 18.4744 6.10354C17.1434 6.0983 16.3818 7.02497 16.3818 8.62691C16.3818 9.6887 16.9458 10.4113 17.962 10.4113C18.2493 10.4113 18.7072 10.2947 18.7072 10.2947Z" fill="#000066"/>
<path d="M6.86867 6.96289C6.28474 6.96289 5.8372 7.15055 5.8372 7.15055L5.71354 7.88414C5.71354 7.88414 6.083 7.73403 6.64156 7.73403C6.95866 7.73403 7.19064 7.76968 7.19064 8.02739C7.19064 8.18391 7.1623 8.24168 7.1623 8.24168C7.1623 8.24168 6.91208 8.22083 6.79618 8.22083C5.96484 8.22083 5.28613 8.53513 5.28613 9.48274C5.28613 10.2295 5.7937 10.4007 6.10827 10.4007C6.70917 10.4007 6.94702 10.0214 6.96074 10.0203L6.95379 10.3351H7.70362L8.03815 7.99002C8.03815 6.99484 7.17015 6.96289 6.86867 6.96289ZM6.99847 8.86713C7.01481 9.01029 6.96146 9.68728 6.44857 9.68728C6.18409 9.68728 6.1154 9.48509 6.1154 9.36576C6.1154 9.13251 6.24204 8.85278 6.86596 8.85278C7.01129 8.85278 6.97401 8.86325 6.99847 8.86713Z" fill="#000066"/>
<path d="M8.83455 10.3831C9.02636 10.3831 10.1228 10.4319 10.1228 9.30041C10.1228 8.24241 9.10787 8.45156 9.10787 8.02641C9.10787 7.815 9.27333 7.74839 9.57581 7.74839C9.69577 7.74839 10.1577 7.78657 10.1577 7.78657L10.2651 7.03466C10.2651 7.03466 9.96611 6.96777 9.4794 6.96777C8.84944 6.96777 8.21 7.21925 8.21 8.07966C8.21 9.05471 9.27622 8.95677 9.27622 9.36748C9.27622 9.64162 8.97834 9.66418 8.7487 9.66418C8.35145 9.66418 7.99381 9.52779 7.99255 9.53438L7.87891 10.2786C7.89958 10.2849 8.12028 10.3831 8.83455 10.3831Z" fill="#000066"/>
<path d="M25.7312 6.28027L25.5773 7.42746C25.5773 7.42746 25.2566 6.9847 24.7548 6.9847C23.8107 6.9847 23.3242 7.92554 23.3242 9.00629C23.3242 9.70404 23.6712 10.388 24.3802 10.388C24.8903 10.388 25.1731 10.0322 25.1731 10.0322L25.1357 10.336H25.9641L26.6147 6.2865L25.7312 6.28027ZM25.3655 8.50992C25.3655 8.95971 25.1427 9.56061 24.6812 9.56061C24.3746 9.56061 24.2309 9.30326 24.2309 8.89951C24.2309 8.23921 24.5275 7.80368 24.9018 7.80368C25.2082 7.80368 25.3655 8.014 25.3655 8.50992Z" fill="#000066"/>
<path d="M2.25748 10.3399L2.77587 7.28259L2.85206 10.3399H3.43869L4.53316 7.28259L4.04834 10.3399H4.92013L5.59143 6.28498L4.20658 6.27441L3.38282 8.75707L3.36025 6.28498H2.09112L1.41016 10.3399H2.25748Z" fill="#000066"/>
<path d="M15.3775 10.3452C15.6254 8.9357 15.7137 7.82255 16.4365 8.05309C16.5403 7.50752 16.7877 7.03309 16.9007 6.80219C16.9007 6.80219 16.865 6.74902 16.6416 6.74902C16.2602 6.74902 15.751 7.52296 15.751 7.52296L15.8271 7.04446H15.0341L14.5029 10.3451L15.3775 10.3452Z" fill="#000066"/>
<path d="M20.4908 6.96289C19.9066 6.96289 19.4591 7.15055 19.4591 7.15055L19.3355 7.88414C19.3355 7.88414 19.7052 7.73403 20.2635 7.73403C20.5806 7.73403 20.8125 7.76968 20.8125 8.02739C20.8125 8.18391 20.7843 8.24168 20.7843 8.24168C20.7843 8.24168 20.5342 8.22083 20.4183 8.22083C19.5868 8.22083 18.9082 8.53513 18.9082 9.48274C18.9082 10.2295 19.4157 10.4007 19.7303 10.4007C20.331 10.4007 20.569 10.0214 20.5826 10.0203L20.5756 10.3351H21.3256L21.66 7.99002C21.6601 6.99484 20.7921 6.96289 20.4908 6.96289ZM20.6204 8.86713C20.6367 9.01029 20.5834 9.68728 20.0706 9.68728C19.8059 9.68728 19.7373 9.48509 19.7373 9.36576C19.7373 9.13251 19.8638 8.85278 20.4878 8.85278C20.6333 8.85278 20.5961 8.86325 20.6204 8.86713Z" fill="#000066"/>
<path d="M22.5232 10.3457C22.6593 9.30878 22.9113 7.85298 23.5821 8.05364C23.6858 7.50807 23.5858 7.50952 23.3625 7.50952C22.9808 7.50952 22.8964 7.52342 22.8964 7.52342L22.9725 7.04492H22.1796L21.6484 10.3457L22.5232 10.3457Z" fill="#000066"/>
<path d="M11.7739 10.0366L11.8805 9.31279C11.8223 9.31279 11.7366 9.3377 11.6611 9.3377C11.3646 9.3377 11.332 9.1801 11.3508 9.06357L11.5903 7.58664H12.0408L12.1496 6.78599H11.7248L11.8113 6.28809H10.9597C10.9409 6.30686 10.457 9.08839 10.457 9.42707C10.457 9.92849 10.7386 10.1518 11.1356 10.1482C11.4464 10.1456 11.6885 10.0596 11.7739 10.0366Z" fill="white"/>
<path d="M12.0439 8.65587C12.0439 9.85929 12.8383 10.1452 13.515 10.1452C14.1396 10.1452 14.4145 10.0056 14.4145 10.0056L14.5645 9.18428C14.5645 9.18428 14.0894 9.39361 13.6602 9.39361C12.7458 9.39361 12.906 8.71183 12.906 8.71183H14.6365C14.6365 8.71183 14.7483 8.16004 14.7483 7.93519C14.7483 7.3741 14.469 6.69043 13.534 6.69043C12.6778 6.69061 12.0439 7.61321 12.0439 8.65587ZM13.5373 7.45308C14.0179 7.45308 13.9292 7.99314 13.9292 8.03683H12.9838C12.9838 7.98104 13.0732 7.45308 13.5373 7.45308Z" fill="white"/>
<path d="M18.9289 10.036L19.0813 9.10758C19.0813 9.10758 18.6635 9.31709 18.3767 9.31709C17.7726 9.31709 17.5304 8.85583 17.5304 8.36027C17.5304 7.35499 18.0501 6.80193 18.6287 6.80193C19.0626 6.80193 19.4109 7.04556 19.4109 7.04556L19.5499 6.14354C19.5499 6.14354 19.0335 5.93457 18.5908 5.93457C17.6077 5.93457 16.6514 6.7874 16.6514 8.38907C16.6514 9.45113 17.1678 10.1526 18.184 10.1526C18.4713 10.1527 18.9289 10.036 18.9289 10.036Z" fill="white"/>
<path d="M7.09044 6.7041C6.50651 6.7041 6.05888 6.89176 6.05888 6.89176L5.93531 7.62535C5.93531 7.62535 6.30477 7.47524 6.86324 7.47524C7.18034 7.47524 7.41232 7.51089 7.41232 7.7686C7.41232 7.92512 7.38389 7.98289 7.38389 7.98289C7.38389 7.98289 7.13376 7.96195 7.01795 7.96195C6.28148 7.96195 5.50781 8.27625 5.50781 9.22386C5.50781 9.97054 6.01538 10.1419 6.32995 10.1419C6.93076 10.1419 7.18973 9.752 7.20354 9.75083L7.17547 10.0762H7.9253L8.25982 7.73105C8.25982 6.73615 7.39192 6.7041 7.09044 6.7041ZM7.27286 8.61358C7.28911 8.75683 7.18305 9.42831 6.67034 9.42831C6.40586 9.42831 6.33708 9.2263 6.33708 9.10679C6.33708 8.87372 6.46372 8.5939 7.08773 8.5939C7.23288 8.59408 7.2484 8.6096 7.27286 8.61358Z" fill="white"/>
<path d="M9.05614 10.1244C9.24795 10.1244 10.3445 10.1731 10.3445 9.04162C10.3445 7.9838 9.32946 8.19277 9.32946 7.7678C9.32946 7.55622 9.49492 7.4896 9.79731 7.4896C9.91736 7.4896 10.3792 7.52778 10.3792 7.52778L10.4867 6.77587C10.4867 6.77587 10.1877 6.70898 9.70099 6.70898C9.07103 6.70898 8.43159 6.96046 8.43159 7.82087C8.43159 8.79583 9.4978 8.69798 9.4978 9.10869C9.4978 9.38283 9.19993 9.40512 8.97038 9.40512C8.57312 9.40512 8.2154 9.26882 8.21414 9.27532L8.10059 10.0196C8.12117 10.026 8.34178 10.1244 9.05614 10.1244Z" fill="white"/>
<path d="M25.9835 6.02967L25.7998 7.16946C25.7998 7.16946 25.4793 6.7267 24.9775 6.7267C24.1972 6.7267 23.5469 7.66745 23.5469 8.74838C23.5469 9.44613 23.8938 10.1298 24.6029 10.1298C25.113 10.1298 25.3958 9.77416 25.3958 9.77416L25.3583 10.0779H26.1866L26.8371 6.02832L25.9835 6.02967ZM25.588 8.25201C25.588 8.7018 25.3654 9.30261 24.9037 9.30261C24.5972 9.30261 24.4536 9.04535 24.4536 8.64159C24.4536 7.98139 24.7501 7.54577 25.1243 7.54577C25.4308 7.54568 25.588 7.75627 25.588 8.25201Z" fill="white"/>
<path d="M2.47926 10.0814L2.99765 7.02407L3.07375 10.0814H3.66047L4.75494 7.02407L4.27012 10.0814H5.14191L5.8133 6.02637H4.46519L3.62563 8.51435L3.58194 6.02637H2.33926L1.6582 10.0814H2.47926Z" fill="white"/>
<path d="M15.6001 10.0864C15.8479 8.67683 15.8939 7.53226 16.4854 7.74177C16.5889 7.19621 16.6889 6.98517 16.8019 6.75427C16.8019 6.75427 16.7489 6.74316 16.6377 6.74316C16.2563 6.74316 15.9738 7.26418 15.9738 7.26418L16.0497 6.78568H15.2568L14.7256 10.0864H15.6001Z" fill="white"/>
<path d="M20.8941 6.7041C20.3101 6.7041 19.8625 6.89176 19.8625 6.89176L19.739 7.62535C19.739 7.62535 20.1085 7.47524 20.6669 7.47524C20.9841 7.47524 21.2159 7.51089 21.2159 7.7686C21.2159 7.92512 21.1876 7.98289 21.1876 7.98289C21.1876 7.98289 20.9375 7.96195 20.8216 7.96195C20.0852 7.96195 19.3115 8.27625 19.3115 9.22386C19.3115 9.97054 19.819 10.1419 20.1336 10.1419C20.7344 10.1419 20.9933 9.752 21.0071 9.75083L20.9792 10.0762C20.9792 10.0762 21.7287 10.0762 21.729 10.0762L22.0634 7.73105C22.0635 6.73615 21.1955 6.7041 20.8941 6.7041ZM21.0768 8.61358C21.093 8.75683 20.9868 9.42831 20.474 9.42831C20.2095 9.42831 20.1409 9.2263 20.1409 9.10679C20.1409 8.87372 20.2675 8.5939 20.8914 8.5939C21.0366 8.59408 21.052 8.6096 21.0768 8.61358Z" fill="white"/>
<path d="M22.7494 10.0864C22.9974 8.67683 23.0433 7.53226 23.6346 7.74177C23.7383 7.19621 23.8384 6.98517 23.9513 6.75427C23.9513 6.75427 23.8983 6.74316 23.7871 6.74316C23.4057 6.74316 23.1232 7.26418 23.1232 7.26418L23.1991 6.78568H22.4062L21.875 10.0864H22.7494Z" fill="white"/>
<path d="M26.8185 9.57715C26.8618 9.57715 26.9044 9.58825 26.9455 9.61082C26.9869 9.63266 27.0191 9.6648 27.0422 9.70641C27.0654 9.74775 27.0768 9.79081 27.0768 9.83585C27.0768 9.88035 27.0654 9.92332 27.0426 9.96439C27.0199 10.0055 26.9881 10.0377 26.947 10.0603C26.906 10.0829 26.863 10.0943 26.8185 10.0943C26.7735 10.0943 26.7305 10.0829 26.6895 10.0603C26.6485 10.0375 26.6167 10.0055 26.594 9.96439C26.5709 9.92332 26.5596 9.88035 26.5596 9.83585C26.5596 9.79081 26.571 9.74775 26.5942 9.70641C26.6175 9.6648 26.6498 9.63284 26.6911 9.61082C26.7327 9.58825 26.7753 9.57715 26.8185 9.57715ZM26.8185 9.61975C26.7823 9.61975 26.747 9.62914 26.7124 9.64801C26.6779 9.66642 26.6511 9.69305 26.6317 9.72789C26.6124 9.76228 26.6026 9.7983 26.6026 9.83567C26.6026 9.87304 26.612 9.90878 26.6309 9.9429C26.6501 9.97693 26.6768 10.0037 26.7113 10.0229C26.7454 10.0417 26.7811 10.0511 26.8185 10.0511C26.8557 10.0511 26.8917 10.0417 26.9258 10.0229C26.9599 10.0037 26.9866 9.97693 27.0056 9.9429C27.0246 9.90851 27.0339 9.87304 27.0339 9.83567C27.0339 9.7983 27.0243 9.76228 27.0049 9.72789C26.9857 9.69305 26.9589 9.66642 26.9242 9.64801C26.8899 9.62923 26.8548 9.61975 26.8185 9.61975ZM26.7053 9.97865V9.70036H26.801C26.8336 9.70036 26.8574 9.70298 26.8719 9.7083C26.8865 9.71327 26.898 9.7222 26.9069 9.73511C26.9157 9.74793 26.9201 9.76138 26.9201 9.77582C26.9201 9.79613 26.9127 9.81391 26.8981 9.8289C26.8838 9.84388 26.8646 9.85255 26.8406 9.85417C26.8501 9.85833 26.8581 9.86329 26.8642 9.86889C26.8753 9.8799 26.889 9.89831 26.9053 9.92404L26.9393 9.97856H26.8843L26.8599 9.93478C26.8404 9.90021 26.8248 9.87873 26.8129 9.86997C26.8046 9.86356 26.7926 9.8604 26.7768 9.8604H26.7506V9.97874L26.7053 9.97865ZM26.7502 9.82204H26.8047C26.8308 9.82204 26.8484 9.81816 26.8578 9.81039C26.8673 9.80281 26.8723 9.79243 26.8723 9.77952C26.8723 9.77131 26.87 9.76391 26.8655 9.75768C26.8609 9.751 26.8545 9.74622 26.8463 9.74288C26.838 9.73972 26.8233 9.73809 26.8013 9.73809H26.7503V9.82204" fill="white"/>
</g>
<defs>
<clipPath id="clip0_2598_50627">
<rect width="26.7244" height="16" fill="white" transform="translate(0.900391)"/>
</clipPath>
</defs>
</svg>
