<svg width="49" height="16" viewBox="0 0 49 16" fill="none" xmlns="http://www.w3.org/2000/svg">
<g clip-path="url(#clip0_2598_50625)">
<path d="M19.1253 0.522772L12.8411 15.5162H8.7411L5.64862 3.55076C5.46087 2.81376 5.29762 2.54376 4.72662 2.23326C3.79438 1.72752 2.25488 1.25302 0.900391 0.95852L0.99239 0.522772H7.59211C8.43335 0.522772 9.1896 1.08277 9.3806 2.05151L11.0138 10.7275L15.0503 0.522522H19.1253V0.522772ZM35.1897 10.6212C35.2062 6.66399 29.7177 6.44599 29.7555 4.67825C29.7672 4.14025 30.2795 3.56826 31.4007 3.42226C31.9565 3.34951 33.4877 3.29401 35.2245 4.09325L35.9057 0.91377C34.9725 0.575022 33.7717 0.249023 32.2777 0.249023C28.444 0.249023 25.746 2.28701 25.7233 5.20525C25.6985 7.36374 27.649 8.56823 29.1185 9.28547C30.6302 10.02 31.1375 10.492 31.1317 11.149C31.121 12.1547 29.926 12.5987 28.8092 12.6162C26.8598 12.6462 25.7285 12.0887 24.8268 11.6695L24.1238 14.9542C25.03 15.3699 26.7028 15.7327 28.437 15.7509C32.5117 15.7509 35.1772 13.7382 35.1897 10.6212ZM45.3132 15.5164H48.9004L45.7692 0.522772H42.4582C41.7137 0.522772 41.0857 0.95627 40.8077 1.62277L34.9875 15.5162H39.0602L39.8687 13.2767H44.8449L45.3132 15.5162V15.5164ZM40.9854 10.204L43.0269 4.5745L44.2019 10.204H40.9854ZM24.667 0.522772L21.4598 15.5162H17.5813L20.7898 0.522772H24.667Z" fill="#1434CB"/>
</g>
<defs>
<clipPath id="clip0_2598_50625">
<rect width="48" height="15.5019" fill="white" transform="translate(0.900391 0.249023)"/>
</clipPath>
</defs>
</svg>
