<svg width="27" height="32" viewBox="0 0 27 32" fill="none" xmlns="http://www.w3.org/2000/svg">
<path d="M20.6251 31.5754C20.9799 31.5517 21.2995 31.4107 21.5535 31.1931C21.8076 31.4107 22.1271 31.5517 22.4819 31.5754C23.3742 31.635 24.1449 30.9377 24.2027 30.0173L24.916 18.6699C25.0723 18.7894 25.2621 18.8662 25.4707 18.8802C25.494 18.8818 25.5171 18.8826 25.5401 18.8826C26.0877 18.8826 26.5486 18.444 26.5848 17.8726C27.1417 9.0865 25.2145 6.99097 24.8225 6.66015C24.6366 6.50321 24.4141 6.42428 24.1911 6.41734C24.1558 6.41351 24.1201 6.41137 24.0839 6.41137H19.023C18.9868 6.41137 18.951 6.41351 18.9158 6.41734C18.6929 6.42428 18.4703 6.50321 18.2844 6.66015C17.8924 6.99097 15.9652 9.0865 16.5221 17.8726C16.5583 18.444 17.0192 18.8826 17.5668 18.8826C17.5898 18.8826 17.6129 18.8818 17.6362 18.8802C17.8448 18.8662 18.0347 18.7894 18.191 18.6698L18.9043 30.0173C18.9622 30.9377 19.7329 31.635 20.6251 31.5754Z" fill="black"/>
<path d="M21.2952 6.0771C22.923 6.0771 24.2426 4.71669 24.2426 3.03855C24.2426 1.3604 22.923 0 21.2952 0C19.6675 0 18.3479 1.3604 18.3479 3.03855C18.3479 4.71669 19.6675 6.0771 21.2952 6.0771Z" fill="black"/>
<path d="M4.20325 31.5754C4.55805 31.5517 4.87759 31.4107 5.13166 31.1931C5.38572 31.4107 5.70526 31.5517 6.05999 31.5754C6.95232 31.635 7.72299 30.9377 7.78081 30.0173L8.49414 18.6699C8.65042 18.7894 8.84026 18.8662 9.04887 18.8802C9.07214 18.8818 9.09526 18.8826 9.11823 18.8826C9.66583 18.8826 10.1267 18.444 10.1629 17.8726C10.7198 9.0865 8.79267 6.99097 8.40067 6.66015C8.21475 6.50321 7.99218 6.42428 7.76921 6.41734C7.73397 6.41351 7.69825 6.41137 7.66203 6.41137H2.60113C2.56491 6.41137 2.52917 6.41351 2.49395 6.41734C2.27098 6.42428 2.04841 6.50321 1.86248 6.66015C1.4705 6.99097 -0.456637 9.0865 0.100242 17.8726C0.136449 18.444 0.597322 18.8826 1.14493 18.8826C1.16789 18.8826 1.19101 18.8818 1.21429 18.8802C1.42295 18.8662 1.61282 18.7894 1.76914 18.6698L2.48241 30.0173C2.54031 30.9377 3.31098 31.635 4.20325 31.5754Z" fill="black"/>
<path d="M4.87337 6.0771C6.50115 6.0771 7.82072 4.71669 7.82072 3.03855C7.82072 1.3604 6.50115 0 4.87337 0C3.24559 0 1.92602 1.3604 1.92602 3.03855C1.92602 4.71669 3.24559 6.0771 4.87337 6.0771Z" fill="black"/>
</svg>
