<svg width="36" height="26" viewBox="0 0 36 26" fill="none" xmlns="http://www.w3.org/2000/svg">
<path d="M35.6875 15.0625V23.8125C35.6875 24.5025 35.1275 25.0625 34.4375 25.0625C33.7475 25.0625 33.1875 24.5025 33.1875 23.8125V22.5625H3.1875V23.8125C3.1875 24.5025 2.6275 25.0625 1.9375 25.0625C1.2475 25.0625 0.6875 24.5025 0.6875 23.8125V15.0625C0.6875 12.995 2.37 11.3125 4.4375 11.3125H31.9375C34.005 11.3125 35.6875 12.995 35.6875 15.0625Z" fill="black"/>
<path d="M4.4375 8.8125V1.3125C4.4375 0.6225 4.9975 0.0625 5.6875 0.0625H30.6875C31.3775 0.0625 31.9375 0.6225 31.9375 1.3125V8.8125H28.1875V7.5625C28.1875 6.18375 27.0662 5.0625 25.6875 5.0625H21.9375C20.5588 5.0625 19.4375 6.18375 19.4375 7.5625V8.8125H16.9375V7.5625C16.9375 6.18375 15.8163 5.0625 14.4375 5.0625H10.6875C9.30875 5.0625 8.1875 6.18375 8.1875 7.5625V8.8125H4.4375Z" fill="black"/>
</svg>
