<svg width="36" height="31" viewBox="0 0 36 31" fill="none" xmlns="http://www.w3.org/2000/svg">
<path d="M32.6176 10.8288C32.6643 10.8036 32.7211 10.8065 32.7651 10.8363C32.8719 10.8957 33.3851 11.2901 33.8569 13.3594C33.3313 13.3813 32.6501 13.4276 31.8569 13.5301C31.8651 13.2969 31.8669 13.0694 31.8676 12.8576C31.8707 11.5626 31.9338 11.0894 32.6176 10.8288Z" fill="black"/>
<path d="M30.5 15.29C30.5637 15.1041 30.7247 14.9683 30.9188 14.9369C31.0344 14.9132 31.1488 14.8963 31.2757 14.8744C32.367 14.69 33.4714 14.5932 34.5782 14.585H34.6194C34.772 14.5746 34.9069 14.6836 34.9288 14.835C35.0728 16.0791 35.0167 17.3381 34.7625 18.5644C34.5266 19.4562 34.1608 20.3084 33.6769 21.0938C32.7304 19.3448 31.4299 17.8122 29.8582 16.5938C30.1285 16.1893 30.3443 15.7509 30.5 15.29Z" fill="black"/>
<path d="M24.4662 17.9531L27.5993 16.7562C30.945 18.0718 32.9743 22.3637 33.3493 23.1687C33.0037 23.7662 31.8912 25.2743 29.0312 26.3656C28.0511 26.7514 27.0181 26.9864 25.9675 27.0625H25.1431C24.7068 27.0424 24.2752 26.9647 23.8593 26.8312C23.8237 26.6781 23.7756 26.4681 23.7275 26.2156C23.43 24.6675 22.9106 20.7768 24.4662 17.9531Z" fill="black"/>
<path d="M22.3324 25.4375C21.4912 25.1593 20.6996 24.749 19.9874 24.2219C19.0557 23.442 18.2626 22.5101 17.6418 21.4656C17.5676 21.306 17.6144 21.1162 17.7543 21.0094C17.7624 21.0019 17.7706 20.9944 17.7774 20.9869C18.6392 20.2444 19.5567 19.5693 20.5218 18.9675C20.6212 18.905 20.7206 18.8381 20.8412 18.7681C20.9868 18.6734 21.1735 18.6693 21.3231 18.7575C21.7143 19.0055 22.1382 19.198 22.5824 19.3294C22.0946 21.3286 22.0096 23.405 22.3324 25.4375Z" fill="black"/>
<path d="M16.9224 16.8925C16.9421 16.8264 16.993 16.7742 17.0587 16.7531C17.7212 16.5031 18.0243 16.8019 18.7962 17.7913C18.9287 17.9606 19.0706 18.1419 19.2231 18.3238C18.5418 18.7806 17.9812 19.2044 17.5574 19.5456C16.9074 18.0969 16.7912 17.2313 16.9224 16.8925Z" fill="black"/>
<path d="M0 17.9812C0 15.5168 0.3675 12.6874 3.23125 12.6874C3.83176 12.6844 4.42888 12.7775 5 12.9631V14.3062C4.44439 14.0557 3.84068 13.9298 3.23125 13.9374C1.40125 13.9374 1.25 15.8506 1.25 17.9812C1.25 20.1456 1.99063 21.4374 3.23125 21.4374C3.83401 21.4313 4.43161 21.3257 5 21.1249V21.4374C5.00265 21.7641 5.02897 22.0902 5.07875 22.4131C4.47873 22.5903 3.85687 22.6826 3.23125 22.6874C1.20813 22.6874 0 20.9281 0 17.9812Z" fill="black"/>
<path d="M6.39563 22.7006C6.29842 22.2866 6.24955 21.8628 6.25 21.4375V11.4375C6.25 11.0923 6.52983 10.8125 6.875 10.8125H20.625C20.9702 10.8125 21.25 11.0923 21.25 11.4375V17.4656C20.9225 17.4351 20.5931 17.5002 20.3019 17.6531C20.1213 17.4469 19.9475 17.2344 19.7819 17.0219C19.0738 16.1144 18.1944 14.9825 16.6144 15.5844C16.2182 15.7306 15.9054 16.042 15.7575 16.4375C15.4319 17.2769 15.7156 18.5994 16.6069 20.4569C16.2802 20.9614 16.2693 21.6079 16.5788 22.1231C17.2783 23.2946 18.1721 24.3384 19.2219 25.21C19.3313 25.2944 19.4444 25.3713 19.5575 25.4487C18.511 26.4846 17.0974 27.0647 15.625 27.0625H11.875C9.2517 27.0733 6.97332 25.2596 6.39563 22.7006Z" fill="black"/>
<path d="M35 29.5625C35 30.24 34.125 30.8125 33.0938 30.8125H4.40625C3.375 30.8125 2.5 30.24 2.5 29.5625V28.3693C2.56591 28.3297 2.64187 28.3099 2.71875 28.3125H34.7812C34.8581 28.3099 34.9341 28.3297 35 28.3693V29.5625Z" fill="black"/>
<path d="M13.125 7.6875C12.7798 7.6875 12.5 7.40768 12.5 7.0625C12.4945 6.33792 12.7671 5.63884 13.2618 5.10938C13.5743 4.79945 13.75 4.37759 13.75 3.9375C13.75 3.49742 13.5743 3.07555 13.2618 2.76563C12.7671 2.23616 12.4945 1.53708 12.5 0.8125C12.5 0.467322 12.7798 0.1875 13.125 0.1875C13.4701 0.1875 13.75 0.467322 13.75 0.8125C13.7458 1.25339 13.9222 1.6768 14.2381 1.98438C15.2539 3.08832 15.2539 4.78668 14.2381 5.89063C13.9222 6.1982 13.7458 6.62161 13.75 7.0625C13.75 7.40768 13.4701 7.6875 13.125 7.6875Z" fill="black"/>
<path d="M9.37496 7.6875C9.02978 7.6875 8.74996 7.40768 8.74996 7.0625C8.74445 6.33792 9.01715 5.63884 9.51184 5.10938C9.82428 4.79945 10 4.37759 10 3.9375C10 3.49742 9.82428 3.07555 9.51184 2.76563C9.01715 2.23616 8.74445 1.53708 8.74996 0.8125C8.74996 0.467322 9.02978 0.1875 9.37496 0.1875C9.72014 0.1875 9.99996 0.467322 9.99996 0.8125C9.99581 1.25339 10.1722 1.6768 10.4881 1.98438C11.5039 3.08832 11.5039 4.78668 10.4881 5.89063C10.1722 6.1982 9.99581 6.62161 9.99996 7.0625C9.99996 7.40768 9.72014 7.6875 9.37496 7.6875Z" fill="black"/>
<path d="M16.875 7.6875C16.5298 7.6875 16.25 7.40768 16.25 7.0625C16.2445 6.33792 16.5171 5.63884 17.0118 5.10938C17.3243 4.79945 17.5 4.37759 17.5 3.9375C17.5 3.49742 17.3243 3.07555 17.0118 2.76563C16.5171 2.23616 16.2445 1.53708 16.25 0.8125C16.25 0.467322 16.5298 0.1875 16.875 0.1875C17.2201 0.1875 17.5 0.467322 17.5 0.8125C17.4958 1.25339 17.6722 1.6768 17.9881 1.98438C19.0039 3.08832 19.0039 4.78668 17.9881 5.89063C17.6722 6.1982 17.4958 6.62161 17.5 7.0625C17.5 7.40768 17.2201 7.6875 16.875 7.6875Z" fill="black"/>
</svg>
