<svg width="35" height="35" viewBox="0 0 35 35" fill="none" xmlns="http://www.w3.org/2000/svg">
<path d="M5.19531 14.4238H1.02539C0.458623 14.4238 0 14.8825 0 15.4492C0 16.016 0.458623 16.4746 1.02539 16.4746H5.19531C5.76208 16.4746 6.2207 16.016 6.2207 15.4492C6.2207 14.8825 5.76208 14.4238 5.19531 14.4238Z" fill="black"/>
<path d="M31.8555 14.4238H27.7539C27.1871 14.4238 26.7285 14.8825 26.7285 15.4492C26.7285 16.016 27.1871 16.4746 27.7539 16.4746H31.8555C32.4222 16.4746 32.8809 16.016 32.8809 15.4492C32.8809 14.8825 32.4222 14.4238 31.8555 14.4238Z" fill="black"/>
<path d="M28.0753 3.84848C27.6748 3.44797 27.0259 3.44797 26.6254 3.84848L23.7254 6.74843C23.3249 7.14894 23.3249 7.79788 23.7254 8.1984C24.126 8.59891 24.7749 8.59891 25.1754 8.1984L28.0753 5.29845C28.4759 4.89794 28.4759 4.249 28.0753 3.84848Z" fill="black"/>
<path d="M9.22379 6.74843L6.32385 3.84848C5.92333 3.44797 5.27439 3.44797 4.87387 3.84848C4.47336 4.249 4.47336 4.89794 4.87387 5.29845L7.77382 8.1984C8.17433 8.59891 8.82327 8.59891 9.22379 8.1984C9.6243 7.79788 9.6243 7.14894 9.22379 6.74843Z" fill="black"/>
<path d="M16.4746 0C15.9078 0 15.4492 0.458623 15.4492 1.02539V5.19531C15.4492 5.76208 15.9078 6.2207 16.4746 6.2207C17.0414 6.2207 17.5 5.76208 17.5 5.19531V1.02539C17.5 0.458623 17.0414 0 16.4746 0Z" fill="black"/>
<path d="M16.3075 21.0233C16.3084 21.0247 16.3096 21.0259 16.3106 21.0272C16.2734 20.9714 16.2741 20.9727 16.3075 21.0233Z" fill="black"/>
<path d="M16.3075 21.0233C15.8959 20.4328 14.9972 20.434 14.588 21.0273L10.0968 27.7948L8.06653 25.0879C7.65638 24.5341 6.836 24.5341 6.42584 25.0879L0.205138 33.3594C-0.0204482 33.6669 -0.0614638 34.0771 0.102599 34.4257C0.287169 34.7744 0.635802 35 1.02545 35H25.5596C25.4308 34.8063 16.8291 21.8148 16.3075 21.0233Z" fill="black"/>
<path d="M16.4746 8.27148C11.9515 8.27148 8.27148 11.9515 8.27148 16.4746C8.27148 18.8995 9.33543 21.1019 11.0683 22.6224L12.8797 19.8933C13.4765 19.0281 14.4298 18.5304 15.4492 18.5304C15.6596 18.5304 15.8643 18.5643 16.0663 18.6054L19.0331 14.1485C19.6089 13.3003 20.5652 12.8036 21.6016 12.8036C22.638 12.8036 23.5942 13.3003 24.159 14.1334L24.4163 14.5196C23.5334 10.9421 20.3207 8.27148 16.4746 8.27148Z" fill="black"/>
<path d="M34.8138 33.4003L22.4628 15.2851C22.0731 14.711 21.1298 14.711 20.7402 15.2851L17.8245 19.6659C18.2478 20.178 20.7892 24.1614 28.0212 35H33.9729C34.3421 35 34.6906 34.7948 34.8753 34.4667C35.0599 34.1182 35.0394 33.7285 34.8138 33.4003Z" fill="black"/>
</svg>
