<svg xmlns="http://www.w3.org/2000/svg" width="23" height="22" viewBox="0 0 23 22" fill="none">
<path fill-rule="evenodd" clip-rule="evenodd" d="M16.1526 15.4987L15.5231 13.1493L15.8868 13.0518L16.6865 16.0365L6.80263 13.3264L14.0155 6.06798L14.8148 9.05122L14.4511 9.14867L13.8212 6.79776L7.52548 13.134L16.1526 15.4987Z" fill="#101010"/>
<path fill-rule="evenodd" clip-rule="evenodd" d="M5.22788 10.8186L5.62174 12.2885L3.77717 14.133L6.29688 14.8081L6.69074 16.2781L1.23134 14.8152L5.22788 10.8186Z" fill="url(#paint0_linear_1960_10603)"/>
<path fill-rule="evenodd" clip-rule="evenodd" d="M16.7485 6.19086L15.2786 5.797L14.6035 3.27728L12.759 5.12186L11.2891 4.728L15.2856 0.731434L16.7485 6.19086Z" fill="url(#paint1_linear_1960_10603)"/>
<path fill-rule="evenodd" clip-rule="evenodd" d="M15.0425 18.5384L16.1185 17.4624L18.6382 18.1376L17.9631 15.6179L19.0391 14.5418L20.5019 20.0012L15.0425 18.5384Z" fill="url(#paint2_linear_1960_10603)"/>
<path fill-rule="evenodd" clip-rule="evenodd" d="M10.5643 19.21L10.2395 15.8746L12.5133 16.4839L10.5643 19.21Z" fill="url(#paint3_linear_1960_10603)"/>
<path fill-rule="evenodd" clip-rule="evenodd" d="M6.85267 6.58422L8.23907 9.63516L9.90361 7.97063L6.85267 6.58422Z" fill="url(#paint4_linear_1960_10603)"/>
<path fill-rule="evenodd" clip-rule="evenodd" d="M19.6492 10.0008L16.3138 9.67598L16.9231 11.9498L19.6492 10.0008Z" fill="url(#paint5_linear_1960_10603)"/>
<path d="M14.8297 9.94836C15.2984 9.82278 15.5766 9.34104 15.451 8.87236C15.3254 8.40368 14.8437 8.12555 14.375 8.25113C13.9063 8.37671 13.6282 8.85845 13.7538 9.32713C13.8793 9.79581 14.3611 10.0739 14.8297 9.94836Z" fill="#101010"/>
<path d="M15.9648 13.9493C16.4334 13.8238 16.7116 13.342 16.586 12.8733C16.4604 12.4047 15.9787 12.1265 15.51 12.2521C15.0413 12.3777 14.7632 12.8594 14.8888 13.3281C15.0143 13.7968 15.4961 14.0749 15.9648 13.9493Z" fill="#101010"/>
<path d="M16.6466 16.6163C17.1153 16.4907 17.3934 16.009 17.2679 15.5403C17.1423 15.0717 16.6605 14.7935 16.1919 14.9191C15.7232 15.0447 15.4451 15.5264 15.5706 15.9951C15.6962 16.4638 16.178 16.7419 16.6466 16.6163Z" fill="#101010"/>
<path d="M7.41532 14.0782C7.88399 13.9527 8.16213 13.4709 8.03654 13.0022C7.91096 12.5336 7.42922 12.2554 6.96055 12.381C6.49187 12.5066 6.21374 12.9883 6.33932 13.457C6.4649 13.9257 6.94664 14.2038 7.41532 14.0782Z" fill="#101010"/>
<path d="M14.1498 7.28137C14.6185 7.15579 14.8966 6.67404 14.771 6.20537C14.6455 5.73669 14.1637 5.45856 13.695 5.58414C13.2264 5.70972 12.9482 6.19146 13.0738 6.66014C13.1994 7.12881 13.6811 7.40695 14.1498 7.28137Z" fill="#101010"/>
<path fill-rule="evenodd" clip-rule="evenodd" d="M14.9702 8.27863C14.9702 8.27863 14.7042 8.20234 14.6227 8.07763C14.5586 7.97906 14.4416 7.61022 14.4191 7.54097C14.3267 7.2591 14.619 6.99217 14.619 6.99217L13.5091 7.31128C13.5091 7.31128 13.8863 7.19634 14.0457 7.64102C14.0706 7.70951 14.1166 8.01722 14.1378 8.20756C14.1623 8.34276 13.9897 8.52783 13.9897 8.52783L14.9702 8.27863Z" fill="#101010"/>
<path fill-rule="evenodd" clip-rule="evenodd" d="M16.5701 14.9035C16.5701 14.9035 16.3635 14.8887 16.309 14.7146C16.2766 14.5934 16.2646 14.5538 16.2299 14.4193C16.2069 14.3479 16.1826 14.2719 16.1711 14.2C16.0984 13.8656 16.2876 13.7376 16.2876 13.7376L15.4277 13.9424C15.4277 13.9424 15.6817 13.9639 15.8041 14.2848C15.8301 14.3528 15.8572 14.4636 15.8717 14.5372C15.9024 14.6565 15.9047 14.6652 15.9373 14.7821C15.9926 14.9738 15.8732 15.0618 15.8732 15.0618L16.5701 14.9035Z" fill="#101010"/>
<path fill-rule="evenodd" clip-rule="evenodd" d="M8.09725 13.062C8.09725 13.062 7.92895 12.9188 8.23684 12.5016C8.41033 12.2665 8.65692 12.0133 8.92429 11.7261C9.41256 11.2013 10.0135 10.6026 10.6109 10.0001C11.1153 9.49172 11.6195 8.9829 12.0782 8.54177C12.4605 8.17431 12.8059 7.84836 13.0895 7.60229C13.1454 7.55389 13.2046 7.51789 13.2506 7.47145C13.5251 7.19643 13.8308 7.30907 13.8308 7.30907L13.0238 6.53775C13.0238 6.53775 13.0849 6.88203 12.8875 7.11035C12.8449 7.15996 12.8056 7.21688 12.7582 7.27267C12.5137 7.55795 12.1896 7.90525 11.8249 8.28982C11.3861 8.75199 10.8814 9.2588 10.3755 9.76635C9.77766 10.3672 9.18231 10.9724 8.66049 11.4641C8.37526 11.7331 8.12121 11.9779 7.88958 12.156C7.55121 12.4159 7.18093 12.3481 7.18093 12.3481L8.09725 13.062Z" fill="#101010"/>
<path fill-rule="evenodd" clip-rule="evenodd" d="M7.69971 13.9039C7.69971 13.9039 7.79768 13.7361 8.33122 13.8215C8.61918 13.8682 8.96328 13.9449 9.34481 14.0353C10.0426 14.2002 10.8607 14.4266 11.6789 14.6481C12.3708 14.8347 13.0487 15.0321 13.6597 15.2129C14.1679 15.3636 15.0746 15.6004 15.1379 15.6185C15.5518 15.7373 15.5263 15.9185 15.5263 15.9185L15.7328 15.1861C15.7328 15.1861 15.5852 15.3674 15.2437 15.257C15.1811 15.2368 14.2806 14.9843 13.7658 14.8572C13.148 14.7045 12.4569 14.516 11.7659 14.3279C10.9474 14.1049 10.1275 13.8868 9.44227 13.6765C9.06712 13.5614 8.72527 13.4689 8.45917 13.3486C7.9241 13.1071 8.0717 12.7899 8.0717 12.7899L7.69971 13.9039Z" fill="#101010"/>
<defs>
<linearGradient id="paint0_linear_1960_10603" x1="1.56514" y1="13.2294" x2="21.737" y2="13.2294" gradientUnits="userSpaceOnUse">
<stop stop-color="#FF8F00"/>
<stop offset="1" stop-color="#FE00FF"/>
</linearGradient>
<linearGradient id="paint1_linear_1960_10603" x1="1.55245" y1="13.2297" x2="21.7243" y2="13.2296" gradientUnits="userSpaceOnUse">
<stop stop-color="#FF8F00"/>
<stop offset="1" stop-color="#FE00FF"/>
</linearGradient>
<linearGradient id="paint2_linear_1960_10603" x1="1.60521" y1="13.2291" x2="21.7772" y2="13.2291" gradientUnits="userSpaceOnUse">
<stop stop-color="#FF8F00"/>
<stop offset="1" stop-color="#FE00FF"/>
</linearGradient>
<linearGradient id="paint3_linear_1960_10603" x1="1.60403" y1="13.2299" x2="21.7759" y2="13.2299" gradientUnits="userSpaceOnUse">
<stop stop-color="#FF8F00"/>
<stop offset="1" stop-color="#FE00FF"/>
</linearGradient>
<linearGradient id="paint4_linear_1960_10603" x1="1.56743" y1="13.2292" x2="21.7394" y2="13.2292" gradientUnits="userSpaceOnUse">
<stop stop-color="#FF8F00"/>
<stop offset="1" stop-color="#FE00FF"/>
</linearGradient>
<linearGradient id="paint5_linear_1960_10603" x1="1.57005" y1="13.2298" x2="21.7419" y2="13.2298" gradientUnits="userSpaceOnUse">
<stop stop-color="#FF8F00"/>
<stop offset="1" stop-color="#FE00FF"/>
</linearGradient>
</defs>
</svg>